<?xml version="1.0" encoding="UTF-8"?><svg id="_イヤー_2" xmlns="http://www.w3.org/2000/svg" viewBox="0 0 196.105 155.968"><defs><style>.cls-1{fill:#ededed;}</style></defs><g id="_イヤー_1-2"><g><path class="cls-1" d="M102.588,91.12c0,20.991-4.345,37.047-13.032,48.166-8.688,11.121-21.408,16.681-38.157,16.681-16.543,0-29.192-5.456-37.949-16.368C4.691,128.688,.208,113.05,0,92.684v-27.941C0,43.545,4.395,27.455,13.188,16.473,21.979,5.491,34.647,0,51.189,0s29.192,5.439,37.949,16.316c8.758,10.878,13.241,26.499,13.449,46.863v27.941Zm-30.13-30.72c0-12.592-1.721-21.759-5.161-27.499-3.44-5.739-8.81-8.609-16.107-8.609-7.089,0-12.32,2.732-15.69,8.192-3.372,5.462-5.16,14.001-5.369,25.619v36.943c0,12.384,1.685,21.586,5.057,27.604,3.37,6.018,8.773,9.026,16.212,9.026,7.366,0,12.684-2.887,15.951-8.661,3.266-5.773,4.968-14.609,5.108-26.507V60.4Z"/><path class="cls-1" d="M196.105,153.882h-30.13V37.741l-35.969,11.156V24.396L192.874,1.877h3.231V153.882Z"/></g></g></svg>