<?xml version="1.0" encoding="UTF-8"?><svg id="_イヤー_2" xmlns="http://www.w3.org/2000/svg" viewBox="0 0 226.966 155.968"><defs><style>.cls-1{fill:#ededed;}</style></defs><g id="_イヤー_1-2"><g><path class="cls-1" d="M102.588,91.12c0,20.991-4.345,37.047-13.032,48.166-8.688,11.121-21.408,16.681-38.157,16.681-16.543,0-29.192-5.456-37.949-16.368C4.691,128.688,.208,113.05,0,92.684v-27.941C0,43.545,4.395,27.455,13.188,16.473,21.979,5.491,34.647,0,51.189,0s29.192,5.439,37.949,16.316c8.758,10.878,13.241,26.499,13.449,46.863v27.941Zm-30.13-30.72c0-12.592-1.721-21.759-5.161-27.499-3.44-5.739-8.81-8.609-16.107-8.609-7.089,0-12.32,2.732-15.69,8.192-3.372,5.462-5.16,14.001-5.369,25.619v36.943c0,12.384,1.685,21.586,5.057,27.604,3.37,6.018,8.773,9.026,16.212,9.026,7.366,0,12.684-2.887,15.951-8.661,3.266-5.773,4.968-14.609,5.108-26.507V60.4Z"/><path class="cls-1" d="M226.966,153.882H122.918v-20.643l49.104-52.337c6.741-7.366,11.729-13.796,14.961-19.287,3.231-5.49,4.848-10.703,4.848-15.638,0-6.741-1.704-12.042-5.108-15.899-3.406-3.857-8.272-5.786-14.596-5.786-6.812,0-12.182,2.346-16.107,7.037-3.928,4.691-5.891,10.861-5.891,18.505h-30.234c0-9.243,2.205-17.688,6.62-25.334,4.413-7.645,10.65-13.64,18.714-17.984,8.062-4.343,17.202-6.516,27.42-6.516,15.638,0,27.784,3.753,36.438,11.26,8.653,7.506,12.979,18.106,12.979,31.798,0,7.507-1.946,15.153-5.838,22.937-3.894,7.785-10.566,16.855-20.018,27.211l-34.509,36.385h65.265v24.292Z"/></g></g></svg>