<?xml version="1.0" encoding="UTF-8"?><svg id="_イヤー_2" xmlns="http://www.w3.org/2000/svg" viewBox="0 0 224.672 155.968"><defs><style>.cls-1{fill:#ededed;}</style></defs><g id="_イヤー_1-2"><g><path class="cls-1" d="M102.588,91.12c0,20.991-4.345,37.047-13.032,48.166-8.688,11.121-21.408,16.681-38.157,16.681-16.543,0-29.192-5.456-37.949-16.368C4.691,128.688,.208,113.05,0,92.684v-27.941C0,43.545,4.395,27.455,13.188,16.473,21.979,5.491,34.647,0,51.189,0s29.192,5.439,37.949,16.316c8.758,10.878,13.241,26.499,13.449,46.863v27.941Zm-30.13-30.72c0-12.592-1.721-21.759-5.161-27.499-3.44-5.739-8.81-8.609-16.107-8.609-7.089,0-12.32,2.732-15.69,8.192-3.372,5.462-5.16,14.001-5.369,25.619v36.943c0,12.384,1.685,21.586,5.057,27.604,3.37,6.018,8.773,9.026,16.212,9.026,7.366,0,12.684-2.887,15.951-8.661,3.266-5.773,4.968-14.609,5.108-26.507V60.4Z"/><path class="cls-1" d="M153.569,64.639h16.056c7.645,0,13.309-1.911,16.993-5.734,3.684-3.822,5.525-8.896,5.525-15.221,0-6.115-1.824-10.877-5.473-14.283-3.649-3.405-8.672-5.109-15.065-5.109-5.77,0-10.6,1.582-14.491,4.744-3.894,3.164-5.839,7.282-5.839,12.354h-30.13c0-7.924,2.137-15.029,6.412-21.321,4.274-6.29,10.251-11.208,17.932-14.752,7.679-3.545,16.142-5.317,25.387-5.317,16.056,0,28.635,3.841,37.74,11.52,9.104,7.681,13.658,18.263,13.658,31.746,0,6.951-2.121,13.345-6.36,19.183-4.24,5.838-9.8,10.322-16.681,13.449,8.549,3.059,14.925,7.646,19.131,13.762,4.205,6.117,6.308,13.345,6.308,21.685,0,13.485-4.918,24.292-14.752,32.424-9.836,8.132-22.851,12.198-39.044,12.198-15.153,0-27.542-3.996-37.168-11.99-9.627-7.992-14.439-18.558-14.439-31.694h30.13c0,5.7,2.138,10.357,6.412,13.97,4.274,3.615,9.54,5.421,15.795,5.421,7.158,0,12.771-1.893,16.838-5.682,4.065-3.787,6.099-8.81,6.099-15.065,0-15.151-8.341-22.728-25.021-22.728h-15.951v-23.562Z"/></g></g></svg>