<?xml version="1.0" encoding="UTF-8"?><svg id="_イヤー_2" xmlns="http://www.w3.org/2000/svg" viewBox="0 0 41.602 34.332"><g id="_イヤー_1-2"><g><path d="M26.797,34.219c4.954-2.487,10.511-4.629,14.553-8.507,.629-.603-.017-1.705-.85-1.462-5.377,1.574-10.004,5.329-14.627,8.387-.985,.653-.131,2.112,.925,1.583Z"/><path d="M22.001,25.34c5.731-7.197,12.552-14.985,15.774-23.691,.311-.84-.917-1.519-1.496-.871-3.023,3.376-5.263,7.332-7.762,11.091-2.706,4.071-5.555,8.039-8.51,11.932-.864,1.138,1.096,2.668,1.995,1.539Z"/><path d="M14.645,16.635c.403-1.48,.864-2.956,1.386-4.424,.261-.732,.583-1.462,.808-2.198,.111-.361,.274-.739,.332-1.101,.056-.342,.169-.732,.098-1.065-.075-.355-.66-.443-1.004-.16-.319,.263-.543,.642-.744,.955-.218,.339-.363,.717-.528,1.069-.354,.753-.591,1.532-.845,2.299-.496,1.498-.927,3.002-1.299,4.511-.209,.846,1.567,.957,1.796,.115Z"/><path d="M2.023,15.356c.035-2.455,.087-4.909,.156-7.363,.034-1.218,.136-2.464,.091-3.679-.045-1.203,.034-2.476-.193-3.645C1.89-.292,.953-.15,.723,.668c-.312,1.11-.309,2.394-.447,3.564-.144,1.223-.103,2.523-.136,3.76C.076,10.447,.03,12.901,0,15.356c-.021,1.742,1.998,1.741,2.022,0Z"/></g></g></svg>