<?xml version="1.0" encoding="UTF-8"?><svg id="_イヤー_2" xmlns="http://www.w3.org/2000/svg" viewBox="0 0 86.781 77.612"><defs><style>.cls-1{fill:#bababa;}</style></defs><g id="_イヤー_1-2"><g><path class="cls-1" d="M76.125,58.89c-.142-1.212,.323-2.34,1.044-3.323,4.12-5.625,14.891-21.665,6.495-38.49-2.127-4.263-4.731-7.537-7.598-10.029-.109-.095-.216-.19-.325-.281-.46-.389-.928-.757-1.401-1.107-.181-.133-.361-.261-.544-.389-.377-.265-.757-.519-1.141-.76-.262-.165-.524-.322-.788-.475-.317-.185-.637-.365-.958-.536-.217-.115-.434-.233-.652-.341-.446-.223-.894-.429-1.346-.624-.197-.085-.395-.167-.592-.248-.494-.201-.99-.392-1.487-.563-.067-.023-.133-.042-.2-.064-.563-.19-1.128-.361-1.694-.515l-.024-.006C59.904-.222,54.854-.225,50.554,.408c-10.028,1.477-21.215,9.6-22.405,19.472-.415,3.445-.278,6.041-.105,7.875,.271,3.002-.874,3.856-2.176,6.872-1.089,2.524-1.586,3.93-2.779,6.951-1.047,2.621,2.213,3.181,4.36,3.935,.911,.33,1.925,.476,2.466,.677,.34,.128,.453,.363,.3,1.204-.089,.514-.303,.992-.622,1.4-.269,.332-.407,.617-.261,1.104,.341,1.142,4.723,.554,5.583,2.626,.385,.93-6.675,.367-5.158,2.717,.22,.34,.893,1.913,.56,3.516-.252,1.229-.804,3.283,1.876,5.323,1.256,.961,3.879,.734,5.748,.767,3.74,.065,6.91-.102,8.511-.021,.22,.011,.375,.035,.468,.056,1.039,.29,1.762,1.537,2.486,4.595,.778,3.248,1.339,5.778,1.597,8.134l26.283-8.837,1.386-.465h.003v-.003l.023-.007c-1.615-4.14-2.352-7.509-2.574-9.41Z"/><path class="cls-1" d="M24.151,53.13c0-.644-.812-1.311-1.581-1.311s-1.198,.595-1.198,1.311c0,.726,.428,1.311,1.198,1.311s1.581-.658,1.581-1.311Z"/><path class="cls-1" d="M17.027,53.13c0-.644-.812-1.311-1.581-1.311s-1.198,.595-1.198,1.311c0,.726,.428,1.311,1.198,1.311s1.581-.658,1.581-1.311Z"/><path class="cls-1" d="M9.903,53.13c0-.644-.812-1.311-1.581-1.311s-1.198,.595-1.198,1.311c0,.726,.428,1.311,1.198,1.311s1.581-.658,1.581-1.311Z"/><path class="cls-1" d="M1.198,51.819c-.769,0-1.198,.595-1.198,1.311,0,.726,.428,1.311,1.198,1.311s1.581-.658,1.581-1.311c0-.644-.812-1.311-1.581-1.311Z"/><path class="cls-1" d="M24.234,57.389c-.007-.007-.012-.014-.02-.02-.432-.372-1.229-.475-1.796-.162-.673,.372-.76,1.1-.414,1.726,.352,.636,1.009,.94,1.682,.567,.673-.372,1.065-1.34,.749-1.912-.044-.08-.13-.135-.201-.2Z"/><path class="cls-1" d="M17.999,60.836l-.02-.02c-.431-.372-1.229-.475-1.796-.161-.673,.373-.76,1.1-.414,1.727,.351,.635,1.008,.94,1.682,.567s1.066-1.34,.749-1.912c-.044-.081-.13-.136-.202-.201Z"/><path class="cls-1" d="M11.765,64.284l-.02-.021c-.432-.371-1.229-.474-1.796-.161-.673,.372-.76,1.1-.414,1.726,.352,.636,1.009,.94,1.682,.568,.673-.372,1.066-1.341,.75-1.912-.044-.081-.13-.135-.201-.2Z"/><path class="cls-1" d="M5.53,67.73c-.007-.006-.013-.013-.02-.02-.432-.371-1.23-.475-1.796-.161-.673,.373-.76,1.1-.414,1.726,.352,.636,1.008,.94,1.682,.568,.673-.372,1.065-1.34,.749-1.912-.045-.081-.131-.136-.202-.201Z"/><path class="cls-1" d="M23.686,46.759c-.673-.372-1.331-.068-1.682,.568-.346,.626-.26,1.354,.414,1.726,.567,.314,1.365,.21,1.796-.162,.007-.006,.013-.013,.02-.02,.071-.065,.157-.119,.201-.2,.316-.572-.076-1.54-.749-1.913Z"/><path class="cls-1" d="M17.451,43.312c-.673-.373-1.331-.068-1.682,.567-.346,.626-.26,1.354,.414,1.727,.567,.313,1.365,.21,1.796-.162l.019-.02c.071-.065,.158-.12,.202-.201,.316-.572-.076-1.54-.749-1.912Z"/><path class="cls-1" d="M11.217,39.865c-.673-.372-1.331-.068-1.682,.568-.346,.626-.26,1.353,.414,1.726,.567,.313,1.364,.211,1.796-.161,.007-.007,.013-.015,.02-.021,.071-.065,.157-.119,.201-.2,.316-.571-.076-1.54-.75-1.912Z"/><path class="cls-1" d="M4.983,36.418c-.674-.373-1.331-.068-1.682,.567-.346,.626-.26,1.354,.414,1.726,.567,.314,1.364,.211,1.796-.161,.007-.007,.012-.014,.02-.02,.071-.065,.157-.12,.202-.201,.316-.572-.077-1.54-.749-1.912Z"/></g></g></svg>