<?xml version="1.0" encoding="UTF-8"?><svg id="_イヤー_2" xmlns="http://www.w3.org/2000/svg" viewBox="0 0 153.042 47.755"><defs><style>.cls-1{fill:#bababa;}</style></defs><g id="_イヤー_1-2"><g><circle class="cls-1" cx="19.17" cy="9.075" r="9.075"/><path class="cls-1" d="M28.538,20.599H9.803C4.389,20.599,0,24.988,0,30.402v15.845c0,.833,.675,1.508,1.508,1.508h3.965c.833,0,1.508-.675,1.508-1.508v-14.352h1.81v15.106c0,.416,.338,.754,.754,.754H28.795c.416,0,.754-.338,.754-.754v-15.106h1.81v14.352c0,.833,.675,1.508,1.508,1.508h3.965c.833,0,1.508-.675,1.508-1.508v-15.845c0-5.414-4.389-9.803-9.803-9.803Z"/><circle class="cls-1" cx="133.871" cy="9.075" r="9.075"/><path class="cls-1" d="M143.239,20.599h-18.735c-5.414,0-9.803,4.389-9.803,9.803v15.845c0,.833,.675,1.508,1.508,1.508h3.965c.833,0,1.508-.675,1.508-1.508v-14.352h1.81v15.106c0,.416,.338,.754,.754,.754h19.25c.416,0,.754-.338,.754-.754v-15.106h1.81v14.352c0,.833,.675,1.508,1.508,1.508h3.965c.833,0,1.508-.675,1.508-1.508v-15.845c0-5.414-4.389-9.803-9.803-9.803Z"/><rect class="cls-1" x="83.322" y="29.289" width="6.582" height="3.949"/><rect class="cls-1" x="74.108" y="29.289" width="6.582" height="3.949"/><rect class="cls-1" x="64.893" y="29.289" width="6.582" height="3.949"/><polygon class="cls-1" points="56.124 25.076 44.378 31.263 56.124 37.451 56.124 33.238 62.26 33.238 62.26 29.289 56.124 29.289 56.124 25.076"/><polygon class="cls-1" points="96.918 29.289 92.537 29.289 92.537 33.238 96.918 33.238 96.918 37.451 108.663 31.263 96.918 25.076 96.918 29.289"/></g></g></svg>