<?xml version="1.0" encoding="UTF-8"?><svg id="_イヤー_2" xmlns="http://www.w3.org/2000/svg" viewBox="0 0 118.724 99.535"><defs><style>.cls-1{letter-spacing:-.01em;}.cls-2,.cls-3{fill:#bababa;}.cls-3{font-family:Roboto-Bold, Roboto;font-size:21.452px;}</style></defs><g id="_イヤー_1-2"><g><text class="cls-3" transform="translate(0 18.352)"><tspan class="cls-1" x="0" y="0">Z</tspan><tspan x="12.779" y="0">oom</tspan></text><g><path class="cls-2" d="M41.219,52.069v.029h4.17v13.469l4.809-4.301v-10.592h-.029v-.698h0v-.028h-2.219l-.942-.013,9.511-19.333,5.617-11.379,15.943,30.855v7.686l4.288,.752,.74,.134v-.005l.028,.005v-7.976h25.745v8.323l-.014,3.958,.014-.006v.032c1.395-.755,2.95-1.148,4.547-1.148,.074,0,.147,.004,.221,.012l.011,.002h0c.01,0,.019-.001,.029,0v-11.173h3.232l1.464,.014-.007-.014h.033L99.523,14.134h-3.487V6.332h-12.829v7.802h-23.958l-17.609,35.814-.348,.726-.073,.131v1.264h0Zm45.838-28.404V10.183h5.129v13.483h-5.129Z"/><polygon class="cls-2" points="66.716 49.489 66.716 39.282 58.856 39.282 58.856 49.398 58.856 49.46 58.856 49.46 58.856 49.489 66.716 49.489"/><path class="cls-2" d="M117.176,67.746c-.959-.944-2.209-1.482-3.487-1.54-.087-.015-.174-.015-.262-.015-1.06,0-2.136,.32-3.066,.974l-1.482,1.074-11.768,8.544-5.071,3.676c-.799,.552-1.685,.944-2.6,1.133h-2.935c-.131-.028-.277-.058-.407-.101l-15.502-4.345c-.276-.073-.552-.203-.784-.363-.654-.436-1.119-1.134-1.235-1.933l-.159-1.089c-.232-1.714,1.089-3.196,2.775-3.196h.262l6.625,.624,2.644,.247c.175,.015,.349,.029,.523,.029,.668,0,1.308-.116,1.889-.333,2.31-.843,3.894-3.182,3.604-5.812-.102-.974-.843-1.773-1.816-1.933l-1.788-.305-5.056-.886-12.495-2.179c-.741-.131-1.496-.189-2.237-.189-3.182,0-6.277,1.163-8.689,3.313l-4.46,3.981-4.809,4.286-12.016,10.722c-1.38,1.221-1.584,3.299-.479,4.766l8.354,11.217c.698,.944,1.758,1.424,2.848,1.424,.799,0,1.598-.262,2.252-.813l8.107-6.698c1.424-1.163,3.182-1.787,4.969-1.787,.654,0,1.322,.087,1.961,.261l23.435,6.088c.582,.16,1.177,.233,1.773,.233,1.497,0,2.979-.48,4.199-1.409l18.118-13.818,4.78-3.646,2.906-2.209c2.586-1.932,2.863-5.709,.582-7.99Z"/></g></g></g></svg>