<?xml version="1.0" encoding="UTF-8"?><svg id="_イヤー_2" xmlns="http://www.w3.org/2000/svg" viewBox="0 0 128.851 104.08"><defs><style>.cls-1{fill:#bababa;}</style></defs><g id="_イヤー_1-2"><g><g><path class="cls-1" d="M60.345,63.58l-.008,.013c.563-.766,4.053-5.532,.008-.013Z"/><path class="cls-1" d="M60.345,63.58c7.586-10.353,13.136-23.313,10.197-36.33-1.78-7.884-6.477-15.425-12.893-20.371-2.19-1.688-4.583-3.026-7.093-4.078-.047-.02-.091-.042-.138-.062-.761-.315-1.535-.593-2.317-.851-.133-.045-.263-.095-.398-.137-.777-.247-1.565-.459-2.358-.652-.137-.033-.272-.072-.411-.104-.86-.198-1.727-.361-2.601-.499-.068-.01-.135-.024-.203-.034C39.91,.127,37.658-.037,35.404,.007c-2.654,.052-5.288,.479-7.82,1.215-.127,.037-.248,.085-.374,.123-.675,.205-1.345,.421-2.003,.67-.371,.14-.726,.305-1.089,.458-.415,.175-.835,.341-1.241,.534-.373,.176-.729,.375-1.092,.566-.397,.207-.797,.406-1.184,.63-.259,.15-.503,.316-.756,.473-.485,.3-.969,.599-1.434,.923-.092,.064-.177,.136-.269,.201-5.941,4.243-10.101,10.46-10.449,17.486-.174,3.521-.497,6.5-.652,10.182-.175,4.169-1.548,7.014-2.123,7.928-1.127,1.792-2.686,2.729-3.234,3.257-2.561,2.476-1.592,6.971-1.016,10.069,.811,4.357,2.087,8.883,4.106,12.843,2.817,5.526,8.017,9.586,14.464,8.554,2.417-.387,5.843-2.834,8.145-1.699h.002c.173,.087,.338,.194,.497,.321,.011,.008,.02,.018,.031,.026,.318,.264,.608,.617,.86,1.084,1.043,1.936,1.38,4.332,1.856,6.452,.482,2.144,.926,4.301,1.162,6.487,9.25-3.106,18.5-6.212,27.749-9.318,1.292-.434,1.24-.909,2.504-1.306l.023-.007h0l.026-.01c-1.534-3.944-4.601-10.627-1.756-14.556-.094,.127-.109,.148,.008-.013ZM13.529,48.281c4.619,1.457,9.408,2.44,14.169,3.214,5.736-3.441,11.727-6.543,17.229-10.363,.177-.123,.4,.045,.343,.253-.324,1.185-.555,2.267-.699,3.253-.009,.065-.046,.121-.102,.156-5.291,3.449-10.898,6.473-16.354,9.655-.583,3.496-.476,7.062,.249,10.525,.075,.368,.122,.739,.211,1.105l.007-.003,.005,.028c4.388-2.106,8.623-4.571,12.734-7.17,1.485-.939,2.971-1.877,4.449-2.824,.646-.415,1.768-1.43,2.49-1.404,.7,.024,1.466,.592,2.239,.917,.288,.121,.32,.52,.06,.693-1.664,1.106-3.64,2.361-5.975,3.837-4.95,3.104-9.945,6.104-15.207,8.657-1.44,.699-2.919,1.304-4.37,1.976-1.761,.814-3.38,1.905-5.286,2.398-2.679,.692-5.59,.245-7.891-1.303-3.94-2.652-5.68-7.768-6.935-11.734-.82-2.59-1.429-5.235-1.813-7.924-.4-2.81-.745-6.534,3.158-6.189,1.644,.145,3.198,.859,4.737,1.419,.575,.209,1.164,.375,1.745,.567,.268,.088,.537,.177,.806,.262Z"/></g><g><path class="cls-1" d="M117.853,78.87l-.008,.013c.563-.766,4.053-5.532,.008-.013Z"/><path class="cls-1" d="M117.853,78.87c7.586-10.353,13.136-23.313,10.197-36.33-1.78-7.884-6.477-15.425-12.893-20.371-2.19-1.688-4.583-3.026-7.093-4.078-.047-.02-.091-.042-.138-.062-.761-.315-1.535-.593-2.317-.851-.133-.045-.263-.095-.398-.137-.777-.247-1.565-.459-2.358-.652-.137-.033-.272-.072-.411-.104-.86-.198-1.727-.361-2.601-.499-.068-.01-.135-.024-.203-.034-2.22-.336-4.472-.5-6.726-.456-2.654,.052-5.288,.479-7.82,1.215-.127,.037-.248,.085-.374,.123-.675,.205-1.345,.421-2.003,.67-.371,.14-.726,.305-1.089,.458-.415,.175-.835,.341-1.241,.534-.373,.176-.729,.375-1.092,.566-.397,.207-.797,.406-1.184,.63-.259,.15-.503,.316-.756,.473-.485,.3-.969,.599-1.434,.923-.092,.064-.177,.136-.269,.201-5.941,4.243-10.101,10.46-10.449,17.486-.174,3.521-.497,6.5-.652,10.182-.175,4.169-1.548,7.014-2.123,7.928-1.127,1.792-2.686,2.729-3.234,3.257-2.561,2.476-1.592,6.971-1.016,10.069,.811,4.357,2.087,8.883,4.106,12.843,2.817,5.526,8.017,9.586,14.464,8.554,2.417-.387,5.843-2.834,8.145-1.699h.002c.173,.087,.338,.194,.497,.321,.011,.008,.02,.018,.031,.026,.318,.264,.608,.617,.86,1.084,1.043,1.936,1.38,4.332,1.856,6.452,.482,2.144,.926,4.301,1.162,6.487,9.25-3.106,18.5-6.212,27.749-9.318,1.292-.434,1.24-.909,2.504-1.306l.023-.007h0l.026-.01c-1.534-3.944-4.601-10.627-1.756-14.556-.094,.127-.109,.148,.008-.013Zm-46.817-15.299c4.619,1.457,9.408,2.44,14.169,3.214,5.736-3.441,11.727-6.543,17.229-10.363,.177-.123,.4,.045,.343,.253-.324,1.185-.555,2.267-.699,3.253-.009,.065-.046,.121-.102,.156-5.291,3.449-10.898,6.473-16.354,9.655-.583,3.496-.476,7.062,.249,10.525,.075,.368,.122,.739,.211,1.105l.007-.003,.005,.028c4.388-2.106,8.623-4.571,12.734-7.17,1.485-.939,2.971-1.877,4.449-2.824,.646-.415,1.768-1.43,2.49-1.404,.7,.024,1.466,.592,2.239,.917,.288,.121,.32,.52,.06,.693-1.664,1.106-3.64,2.361-5.975,3.837-4.95,3.104-9.945,6.104-15.207,8.657-1.44,.699-2.919,1.304-4.37,1.976-1.761,.814-3.38,1.905-5.286,2.398-2.679,.692-5.59,.245-7.891-1.303-3.94-2.652-5.68-7.768-6.935-11.734-.82-2.59-1.429-5.235-1.813-7.924-.4-2.81-.745-6.534,3.158-6.189,1.644,.145,3.198,.859,4.737,1.419,.575,.209,1.164,.375,1.745,.567,.268,.088,.537,.177,.806,.262Z"/></g></g></g></svg>