<?xml version="1.0" encoding="UTF-8"?><svg id="_イヤー_2" xmlns="http://www.w3.org/2000/svg" viewBox="0 0 227.074 86.439"><defs><style>.cls-1{fill:#040000;}</style></defs><g id="_イヤー_1-2"><g><g><path class="cls-1" d="M86.564,0c4.642,0,8.907,.878,12.922,2.635,4.015,1.756,7.527,4.14,10.538,7.151,3.011,3.011,5.395,6.524,7.151,10.538,1.756,4.015,2.635,8.406,2.635,12.922,0,4.642-.878,8.907-2.635,12.922-1.756,4.015-4.14,7.527-7.151,10.538-3.011,3.011-6.524,5.395-10.538,7.151-3.889,1.882-8.28,2.635-12.922,2.635s-8.907-.878-12.922-2.635c-4.015-1.756-7.527-4.14-10.538-7.151-3.011-3.011-5.395-6.524-7.151-10.538-1.756-4.015-2.635-8.406-2.635-12.922,0-4.642,.878-8.907,2.635-12.922,1.756-4.015,4.14-7.527,7.151-10.538,3.011-3.011,6.524-5.395,10.538-7.151,4.015-1.756,8.28-2.635,12.922-2.635Zm.125,53.569c2.76,0,5.395-.502,7.904-1.631,2.509-1.004,4.642-2.509,6.524-4.391,1.882-1.882,3.262-4.015,4.391-6.524,1.004-2.509,1.631-5.144,1.631-7.904s-.502-5.395-1.631-7.904c-1.004-2.509-2.509-4.642-4.391-6.524-1.882-1.882-4.015-3.262-6.524-4.391-2.509-1.004-5.144-1.631-7.904-1.631s-5.395,.502-7.904,1.631c-2.509,1.004-4.642,2.509-6.524,4.391-1.882,1.882-3.262,4.015-4.391,6.524s-1.631,5.144-1.631,7.904,.502,5.395,1.631,7.904c1.129,2.509,2.509,4.642,4.391,6.524,1.882,1.882,4.015,3.262,6.524,4.391,2.509,1.129,5.144,1.631,7.904,1.631Z"/><path class="cls-1" d="M47.548,48.3c2.258-2.258,4.015-5.018,4.893-7.904,1.004-3.011,1.255-5.896,.878-8.907l12.796-1.631c.627,4.893,.125,9.786-1.38,14.678-1.505,4.893-4.265,9.158-8.029,13.047-3.262,3.262-6.9,5.645-10.915,7.276-4.015,1.631-8.28,2.509-12.546,2.509s-8.531-.753-12.546-2.384c-4.14-1.631-7.778-4.015-11.04-7.276-3.262-3.262-5.645-6.9-7.276-10.915-1.631-4.265-2.384-8.531-2.384-12.796s.878-8.531,2.509-12.546c1.631-4.015,4.015-7.653,7.276-10.915,3.764-3.764,8.155-6.524,12.922-8.029,4.767-1.631,9.66-2.007,14.678-1.38l-1.631,12.796c-3.011-.376-6.022-.125-8.907,.878-2.885,1.004-5.52,2.635-7.904,4.893-2.007,2.007-3.387,4.14-4.516,6.649-1.004,2.509-1.505,5.018-1.505,7.653s.502,5.144,1.505,7.653c1.004,2.509,2.509,4.642,4.391,6.649,2.007,2.007,4.14,3.387,6.649,4.391s5.018,1.505,7.653,1.505,5.144-.502,7.653-1.505,4.767-2.384,6.775-4.391Z"/><path class="cls-1" d="M193.828,0c4.642,0,8.907,.878,12.922,2.635,4.015,1.756,7.527,4.14,10.538,7.151,3.011,3.011,5.395,6.524,7.151,10.538,1.756,4.015,2.635,8.406,2.635,12.922,0,4.642-.878,8.907-2.635,12.922-1.756,4.015-4.14,7.527-7.151,10.538-3.011,3.011-6.524,5.395-10.538,7.151-4.015,1.756-8.405,2.635-12.922,2.635-4.642,0-8.907-.878-12.922-2.635-4.015-1.756-7.527-4.14-10.538-7.151s-5.395-6.524-7.151-10.538c-1.756-4.015-2.635-8.406-2.635-12.922,0-4.642,.878-8.907,2.635-12.922,1.756-4.015,4.14-7.527,7.151-10.538,3.011-3.011,6.524-5.395,10.538-7.151,4.015-1.756,8.405-2.635,12.922-2.635Zm.125,53.569c2.76,0,5.395-.502,7.904-1.631,2.509-1.004,4.642-2.509,6.524-4.391,1.882-1.882,3.262-4.015,4.391-6.524,1.004-2.509,1.631-5.144,1.631-7.904s-.502-5.395-1.631-7.904c-1.004-2.509-2.509-4.642-4.391-6.524-1.882-1.882-4.015-3.262-6.524-4.391-2.509-1.004-5.144-1.631-7.904-1.631s-5.395,.502-7.904,1.631c-2.509,1.004-4.642,2.509-6.524,4.391-1.882,1.882-3.262,4.015-4.391,6.524-1.129,2.509-1.631,5.144-1.631,7.904s.502,5.395,1.631,7.904c1.129,2.509,2.509,4.642,4.391,6.524,1.882,1.882,4.015,3.262,6.524,4.391,2.509,1.129,5.144,1.631,7.904,1.631Z"/><path class="cls-1" d="M154.812,48.3c2.258-2.258,3.889-5.018,4.893-7.904,1.004-3.011,1.255-5.896,.878-8.907l12.796-1.631c.627,4.893,.125,9.786-1.38,14.678-1.505,4.893-4.265,9.158-8.029,13.047-3.262,3.262-6.9,5.645-10.915,7.276-4.015,1.631-8.28,2.509-12.546,2.509s-8.531-.753-12.546-2.384c-4.14-1.631-7.778-4.015-11.04-7.276-3.262-3.262-5.645-6.9-7.276-10.915-1.631-4.14-2.384-8.28-2.384-12.546s.878-8.531,2.509-12.546c1.631-4.015,4.015-7.653,7.276-10.915,3.764-3.764,8.155-6.524,12.922-8.029,4.893-1.631,9.786-2.007,14.678-1.38l-1.631,12.546c-3.011-.376-6.022-.125-8.907,.878-2.885,1.004-5.52,2.635-7.904,4.893-2.007,2.007-3.387,4.14-4.516,6.649-1.004,2.509-1.505,5.018-1.505,7.653s.502,5.144,1.505,7.653c1.004,2.509,2.509,4.642,4.391,6.649,2.007,2.007,4.14,3.387,6.649,4.391s5.018,1.505,7.653,1.505,5.144-.502,7.653-1.505c2.635-1.004,4.767-2.384,6.775-4.391Z"/></g><g><path class="cls-1" d="M65.237,86.313l-2.007-11.416v11.416h-2.007v-14.427h2.76l2.007,11.04,2.007-11.04h2.885v14.427h-2.007v-11.416l-2.007,11.416h-1.631Z"/><path class="cls-1" d="M82.173,76.528c0-.502,0-1.004-.125-1.38s-.125-.753-.376-1.004c-.125-.251-.376-.502-.627-.627s-.627-.251-1.004-.251-.753,.125-1.004,.251-.502,.376-.627,.627-.251,.627-.376,1.004-.125,.878-.125,1.38v4.642c0,.753,0,1.38,.125,1.882s.251,.878,.502,1.129c.251,.251,.376,.376,.627,.502s.502,.125,.753,.125,.502,0,.753-.125,.502-.251,.627-.502c.251-.251,.376-.627,.502-1.129s.125-1.129,.125-1.882v-.502h-2.007v-1.631h4.14v7.276h-1.505l-.502-1.505c-.125,.125-.125,.376-.251,.502-.125,.251-.251,.376-.376,.502-.125,.125-.376,.251-.627,.376-.251,.125-.502,.125-.753,.125-.376,0-.878,0-1.255-.125s-.753-.251-1.004-.376c-.251-.125-.627-.376-.753-.627-.251-.251-.376-.627-.627-1.129-.125-.376-.251-.878-.376-1.505s-.125-1.255-.125-2.007v-3.638c0-.753,.125-1.505,.251-2.133,.125-.627,.376-1.255,.753-1.631,.376-.502,.753-.878,1.255-1.129s1.129-.376,2.007-.376c.627,0,1.255,.125,1.756,.376s1.004,.502,1.255,.878c.376,.376,.627,.878,.753,1.505s.251,1.255,.251,2.007h-2.007v.125Z"/><path class="cls-1" d="M93.464,86.313l-2.007-11.416v11.416h-2.007v-14.427h2.885l2.007,11.04,2.007-11.04h2.76v14.427h-2.007v-11.416l-2.007,11.416h-1.631Z"/><path class="cls-1" d="M110.652,86.313v-14.427h3.136c.753,0,1.38,.125,2.007,.251,.502,.125,1.004,.376,1.255,.753,.376,.376,.502,.753,.753,1.255s.125,1.129,.125,1.882v5.645c0,.753-.125,1.505-.251,2.007-.125,.627-.376,1.004-.753,1.505-.376,.376-.753,.627-1.255,.878s-1.129,.251-2.007,.251h-3.011Zm3.136-1.505c.502,0,.878-.125,1.255-.251,.251-.125,.502-.376,.627-.627s.251-.627,.251-1.129v-7.653c0-.376-.125-.753-.251-1.004s-.376-.502-.627-.627-.753-.251-1.255-.251h-1.004v11.291h1.004v.251Z"/><path class="cls-1" d="M127.588,79.539h-2.635v5.144h3.638v1.505h-5.645v-14.302h5.645v1.505h-3.638v4.642h2.635v1.505Z"/><path class="cls-1" d="M137.374,86.439c-.502,0-1.004,0-1.38-.125-.376-.125-.753-.251-1.004-.502s-.502-.376-.753-.627-.376-.502-.502-.753-.251-.627-.376-1.004c-.125-.376-.125-.753-.125-1.129l2.007-.502c0,.376,0,.627,.125,1.004,0,.376,.125,.753,.376,1.004s.376,.502,.627,.753,.627,.251,1.004,.251c1.004,0,1.505-.502,1.505-1.505,0-.251,0-.502-.125-.753s-.125-.376-.251-.627-.251-.376-.502-.627l-.627-.627-2.635-2.007-.753-.753c-.251-.251-.376-.502-.502-.878s-.251-.627-.251-.878-.125-.627-.125-.878c0-.502,.125-.878,.251-1.38,.125-.376,.376-.753,.627-1.129,.251-.376,.627-.627,1.129-.753s1.004-.251,1.505-.251,1.004,0,1.38,.125c.376,.125,.753,.251,1.004,.376s.502,.376,.753,.627,.376,.502,.502,.627c.125,.251,.251,.627,.376,.878s.125,.627,.125,1.004l-2.007,.502c0-.251,0-.502-.125-.878,0-.251-.125-.627-.376-.878-.125-.251-.376-.502-.627-.627s-.627-.251-1.004-.251c-.251,0-.502,0-.753,.125s-.376,.251-.502,.376-.251,.251-.251,.502-.125,.376-.125,.627c0,.376,.125,.753,.251,1.129s.376,.627,.753,1.004l2.635,2.007c.376,.251,.627,.502,.878,.878s.502,.627,.627,1.004,.251,.753,.376,1.004c.125,.376,.125,.753,.125,1.129,0,.502-.125,.878-.251,1.255s-.376,.753-.627,1.129c-.251,.251-.627,.502-1.129,.753-.125,.125-.627,.251-1.255,.251Z"/><path class="cls-1" d="M146.03,71.886h2.007v14.427h-2.007v-14.427Z"/><path class="cls-1" d="M159.454,76.528c0-.502,0-1.004-.125-1.38s-.125-.753-.376-1.004c-.125-.251-.376-.502-.627-.627s-.627-.251-1.004-.251-.753,.125-1.004,.251-.502,.376-.627,.627-.251,.627-.376,1.004c-.125,.376-.125,.878-.125,1.38v4.642c0,.753,0,1.38,.125,1.882s.251,.878,.502,1.129,.376,.376,.627,.502,.502,.125,.753,.125,.502,0,.753-.125,.502-.251,.627-.502c.251-.251,.376-.627,.502-1.129s.125-1.129,.125-1.882v-.502h-2.007v-1.631h4.14v7.276h-1.505l-.502-1.505c-.125,.125-.125,.376-.251,.502-.125,.251-.251,.376-.376,.502-.125,.125-.376,.251-.627,.376-.251,.125-.502,.125-.753,.125-.376,0-.878,0-1.255-.125s-.753-.251-1.004-.376c-.251-.125-.627-.376-.753-.627-.251-.251-.376-.627-.627-1.129-.125-.376-.251-.878-.376-1.505-.125-.627-.125-1.255-.125-2.007v-3.638c0-.753,.125-1.505,.251-2.133s.376-1.255,.753-1.631c.376-.502,.753-.878,1.255-1.129s1.129-.376,2.007-.376c.627,0,1.255,.125,1.756,.376s1.004,.502,1.255,.878c.376,.376,.627,.878,.753,1.505,.125,.627,.251,1.255,.251,2.007h-2.007v.125Z"/><path class="cls-1" d="M172.376,86.313l-3.638-9.66v9.66h-2.007v-14.427h1.505l3.638,8.907v-8.907h2.007v14.427h-1.505Z"/></g></g></g></svg>