<?xml version="1.0" encoding="UTF-8"?><svg id="_イヤー_2" xmlns="http://www.w3.org/2000/svg" viewBox="0 0 205.907 78.381"><defs><style>.cls-1{fill:#040000;}</style></defs><g id="_イヤー_1-2"><g><g><path class="cls-1" d="M78.495,0c4.209,0,8.077,.796,11.717,2.389,3.64,1.593,6.826,3.754,9.556,6.484s4.892,5.916,6.484,9.556c1.593,3.64,2.389,7.622,2.389,11.717,0,4.209-.796,8.077-2.389,11.717s-3.754,6.826-6.484,9.556c-2.73,2.73-5.916,4.892-9.556,6.484-3.527,1.706-7.508,2.389-11.717,2.389s-8.077-.796-11.717-2.389c-3.64-1.593-6.826-3.754-9.556-6.484-2.73-2.73-4.892-5.916-6.484-9.556-1.593-3.64-2.389-7.622-2.389-11.717,0-4.209,.796-8.077,2.389-11.717,1.593-3.64,3.754-6.826,6.484-9.556,2.73-2.73,5.916-4.892,9.556-6.484,3.64-1.593,7.508-2.389,11.717-2.389Zm.114,48.576c2.503,0,4.892-.455,7.167-1.479,2.275-.91,4.209-2.275,5.916-3.982s2.958-3.64,3.982-5.916c.91-2.275,1.479-4.664,1.479-7.167s-.455-4.892-1.479-7.167c-.91-2.275-2.275-4.209-3.982-5.916-1.706-1.706-3.64-2.958-5.916-3.982-2.275-.91-4.664-1.479-7.167-1.479s-4.892,.455-7.167,1.479c-2.275,.91-4.209,2.275-5.916,3.982-1.706,1.706-2.958,3.64-3.982,5.916s-1.479,4.664-1.479,7.167,.455,4.892,1.479,7.167c1.024,2.275,2.275,4.209,3.982,5.916,1.706,1.706,3.64,2.958,5.916,3.982,2.275,1.024,4.664,1.479,7.167,1.479Z"/><path class="cls-1" d="M43.115,43.798c2.048-2.048,3.64-4.55,4.437-7.167,.91-2.73,1.138-5.347,.796-8.077l11.604-1.479c.569,4.437,.114,8.873-1.251,13.31-1.365,4.437-3.868,8.305-7.281,11.831-2.958,2.958-6.257,5.119-9.897,6.598-3.64,1.479-7.508,2.275-11.376,2.275s-7.736-.683-11.376-2.161c-3.754-1.479-7.053-3.64-10.011-6.598-2.958-2.958-5.119-6.257-6.598-9.897-1.479-3.868-2.161-7.736-2.161-11.604s.796-7.736,2.275-11.376c1.479-3.64,3.64-6.939,6.598-9.897,3.413-3.413,7.394-5.916,11.717-7.281,4.323-1.479,8.76-1.82,13.31-1.251l-1.479,11.604c-2.73-.341-5.461-.114-8.077,.796-2.617,.91-5.005,2.389-7.167,4.437-1.82,1.82-3.072,3.754-4.095,6.029-.91,2.275-1.365,4.55-1.365,6.939s.455,4.664,1.365,6.939,2.275,4.209,3.982,6.029c1.82,1.82,3.754,3.072,6.029,3.982s4.55,1.365,6.939,1.365,4.664-.455,6.939-1.365,4.323-2.161,6.143-3.982Z"/><path class="cls-1" d="M175.761,0c4.209,0,8.077,.796,11.717,2.389,3.64,1.593,6.826,3.754,9.556,6.484s4.892,5.916,6.484,9.556c1.593,3.64,2.389,7.622,2.389,11.717,0,4.209-.796,8.077-2.389,11.717-1.593,3.64-3.754,6.826-6.484,9.556-2.73,2.73-5.916,4.892-9.556,6.484-3.64,1.593-7.622,2.389-11.717,2.389-4.209,0-8.077-.796-11.717-2.389-3.64-1.593-6.826-3.754-9.556-6.484-2.73-2.73-4.892-5.916-6.484-9.556-1.593-3.64-2.389-7.622-2.389-11.717,0-4.209,.796-8.077,2.389-11.717,1.593-3.64,3.754-6.826,6.484-9.556,2.73-2.73,5.916-4.892,9.556-6.484,3.64-1.593,7.622-2.389,11.717-2.389Zm.114,48.576c2.503,0,4.892-.455,7.167-1.479,2.275-.91,4.209-2.275,5.916-3.982,1.706-1.706,2.958-3.64,3.982-5.916,.91-2.275,1.479-4.664,1.479-7.167s-.455-4.892-1.479-7.167c-.91-2.275-2.275-4.209-3.982-5.916-1.706-1.706-3.64-2.958-5.916-3.982-2.275-.91-4.664-1.479-7.167-1.479s-4.892,.455-7.167,1.479c-2.275,.91-4.209,2.275-5.916,3.982-1.706,1.706-2.958,3.64-3.982,5.916s-1.479,4.664-1.479,7.167,.455,4.892,1.479,7.167c1.024,2.275,2.275,4.209,3.982,5.916s3.64,2.958,5.916,3.982c2.275,1.024,4.664,1.479,7.167,1.479Z"/><path class="cls-1" d="M140.381,43.798c2.048-2.048,3.527-4.55,4.437-7.167,.91-2.73,1.138-5.347,.796-8.077l11.604-1.479c.569,4.437,.114,8.873-1.251,13.31-1.365,4.437-3.868,8.305-7.281,11.831-2.958,2.958-6.257,5.119-9.897,6.598-3.64,1.479-7.508,2.275-11.376,2.275s-7.736-.683-11.376-2.161c-3.754-1.479-7.053-3.64-10.011-6.598-2.958-2.958-5.119-6.257-6.598-9.897-1.479-3.754-2.161-7.508-2.161-11.376s.796-7.736,2.275-11.376c1.479-3.64,3.64-6.939,6.598-9.897,3.413-3.413,7.394-5.916,11.717-7.281,4.437-1.479,8.873-1.82,13.31-1.251l-1.479,11.376c-2.73-.341-5.461-.114-8.077,.796-2.617,.91-5.005,2.389-7.167,4.437-1.82,1.82-3.072,3.754-4.095,6.029-.91,2.275-1.365,4.55-1.365,6.939s.455,4.664,1.365,6.939c.91,2.275,2.275,4.209,3.982,6.029,1.82,1.82,3.754,3.072,6.029,3.982s4.55,1.365,6.939,1.365,4.664-.455,6.939-1.365c2.389-.91,4.323-2.161,6.143-3.982Z"/></g><g><path class="cls-1" d="M59.156,78.268l-1.82-10.352v10.352h-1.82v-13.083h2.503l1.82,10.011,1.82-10.011h2.617v13.083h-1.82v-10.352l-1.82,10.352h-1.479Z"/><path class="cls-1" d="M74.513,69.394c0-.455,0-.91-.114-1.251s-.114-.683-.341-.91c-.114-.228-.341-.455-.569-.569s-.569-.228-.91-.228-.683,.114-.91,.228-.455,.341-.569,.569-.228,.569-.341,.91-.114,.796-.114,1.251v4.209c0,.683,0,1.251,.114,1.706s.228,.796,.455,1.024c.228,.228,.341,.341,.569,.455s.455,.114,.683,.114,.455,0,.683-.114,.455-.228,.569-.455c.228-.228,.341-.569,.455-1.024s.114-1.024,.114-1.706v-.455h-1.82v-1.479h3.754v6.598h-1.365l-.455-1.365c-.114,.114-.114,.341-.228,.455-.114,.228-.228,.341-.341,.455-.114,.114-.341,.228-.569,.341-.228,.114-.455,.114-.683,.114-.341,0-.796,0-1.138-.114s-.683-.228-.91-.341c-.228-.114-.569-.341-.683-.569-.228-.228-.341-.569-.569-1.024-.114-.341-.228-.796-.341-1.365s-.114-1.138-.114-1.82v-3.299c0-.683,.114-1.365,.228-1.934,.114-.569,.341-1.138,.683-1.479,.341-.455,.683-.796,1.138-1.024s1.024-.341,1.82-.341c.569,0,1.138,.114,1.593,.341s.91,.455,1.138,.796c.341,.341,.569,.796,.683,1.365s.228,1.138,.228,1.82h-1.82v.114Z"/><path class="cls-1" d="M84.752,78.268l-1.82-10.352v10.352h-1.82v-13.083h2.617l1.82,10.011,1.82-10.011h2.503v13.083h-1.82v-10.352l-1.82,10.352h-1.479Z"/><path class="cls-1" d="M100.337,78.268v-13.083h2.844c.683,0,1.251,.114,1.82,.228,.455,.114,.91,.341,1.138,.683,.341,.341,.455,.683,.683,1.138s.114,1.024,.114,1.706v5.119c0,.683-.114,1.365-.228,1.82-.114,.569-.341,.91-.683,1.365-.341,.341-.683,.569-1.138,.796s-1.024,.228-1.82,.228h-2.73Zm2.844-1.365c.455,0,.796-.114,1.138-.228,.228-.114,.455-.341,.569-.569s.228-.569,.228-1.024v-6.939c0-.341-.114-.683-.228-.91s-.341-.455-.569-.569-.683-.228-1.138-.228h-.91v10.238h.91v.228Z"/><path class="cls-1" d="M115.695,72.124h-2.389v4.664h3.299v1.365h-5.119v-12.969h5.119v1.365h-3.299v4.209h2.389v1.365Z"/><path class="cls-1" d="M124.568,78.381c-.455,0-.91,0-1.251-.114-.341-.114-.683-.228-.91-.455s-.455-.341-.683-.569-.341-.455-.455-.683-.228-.569-.341-.91c-.114-.341-.114-.683-.114-1.024l1.82-.455c0,.341,0,.569,.114,.91,0,.341,.114,.683,.341,.91s.341,.455,.569,.683,.569,.228,.91,.228c.91,0,1.365-.455,1.365-1.365,0-.228,0-.455-.114-.683s-.114-.341-.228-.569-.228-.341-.455-.569l-.569-.569-2.389-1.82-.683-.683c-.228-.228-.341-.455-.455-.796s-.228-.569-.228-.796-.114-.569-.114-.796c0-.455,.114-.796,.228-1.251,.114-.341,.341-.683,.569-1.024,.228-.341,.569-.569,1.024-.683s.91-.228,1.365-.228,.91,0,1.251,.114c.341,.114,.683,.228,.91,.341s.455,.341,.683,.569,.341,.455,.455,.569c.114,.228,.228,.569,.341,.796s.114,.569,.114,.91l-1.82,.455c0-.228,0-.455-.114-.796,0-.228-.114-.569-.341-.796-.114-.228-.341-.455-.569-.569s-.569-.228-.91-.228c-.228,0-.455,0-.683,.114s-.341,.228-.455,.341-.228,.228-.228,.455-.114,.341-.114,.569c0,.341,.114,.683,.228,1.024s.341,.569,.683,.91l2.389,1.82c.341,.228,.569,.455,.796,.796s.455,.569,.569,.91,.228,.683,.341,.91c.114,.341,.114,.683,.114,1.024,0,.455-.114,.796-.228,1.138s-.341,.683-.569,1.024c-.228,.228-.569,.455-1.024,.683-.114,.114-.569,.228-1.138,.228Z"/><path class="cls-1" d="M132.418,65.185h1.82v13.083h-1.82v-13.083Z"/><path class="cls-1" d="M144.59,69.394c0-.455,0-.91-.114-1.251s-.114-.683-.341-.91c-.114-.228-.341-.455-.569-.569s-.569-.228-.91-.228-.683,.114-.91,.228-.455,.341-.569,.569-.228,.569-.341,.91c-.114,.341-.114,.796-.114,1.251v4.209c0,.683,0,1.251,.114,1.706s.228,.796,.455,1.024,.341,.341,.569,.455,.455,.114,.683,.114,.455,0,.683-.114,.455-.228,.569-.455c.228-.228,.341-.569,.455-1.024s.114-1.024,.114-1.706v-.455h-1.82v-1.479h3.754v6.598h-1.365l-.455-1.365c-.114,.114-.114,.341-.228,.455-.114,.228-.228,.341-.341,.455-.114,.114-.341,.228-.569,.341-.228,.114-.455,.114-.683,.114-.341,0-.796,0-1.138-.114s-.683-.228-.91-.341c-.228-.114-.569-.341-.683-.569-.228-.228-.341-.569-.569-1.024-.114-.341-.228-.796-.341-1.365-.114-.569-.114-1.138-.114-1.82v-3.299c0-.683,.114-1.365,.228-1.934s.341-1.138,.683-1.479c.341-.455,.683-.796,1.138-1.024s1.024-.341,1.82-.341c.569,0,1.138,.114,1.593,.341s.91,.455,1.138,.796c.341,.341,.569,.796,.683,1.365,.114,.569,.228,1.138,.228,1.82h-1.82v.114Z"/><path class="cls-1" d="M156.308,78.268l-3.299-8.76v8.76h-1.82v-13.083h1.365l3.299,8.077v-8.077h1.82v13.083h-1.365Z"/></g></g></g></svg>