<?xml version="1.0" encoding="UTF-8"?><svg id="_イヤー_2" xmlns="http://www.w3.org/2000/svg" viewBox="0 0 96.558 83.493"><defs><style>.cls-1{fill:#bababa;}</style></defs><g id="_イヤー_1-2"><g><path class="cls-1" d="M13.11,15.662l.083-.039,.062-.068c2.856-3.18,8.295-8.707,12.622-9.991,.796-.236,1.999-.518,3.201-.518,1.394,0,2.467,.374,3.188,1.112,1.344,1.37,1.702,4.214,.998,8.102v.324l.309,.097c1.154,.362,2.488,.779,4.018,1.237l.464,.14,.095-.477c1.447-7.275-.443-11.061-2.283-12.956-1.68-1.718-4.033-2.626-6.806-2.626-1.442,0-2.994,.242-4.614,.721-6.793,2.017-14.419,10.55-18.361,15.457l-.604,.752,1.355-.047c3.179-.127,4.41-.367,6.273-1.22Z"/><path class="cls-1" d="M6.109,16.196C10.049,11.292,17.672,2.764,24.455,.75,26.071,.272,27.621,.03,29.06,.03c2.764,0,5.11,.905,6.785,2.617,1.835,1.89,3.719,5.668,2.275,12.929l-.095,.476-.426-.163c-1.529-.458-2.863-.875-4.017-1.237l-.309-.097,.021-.295c.7-3.861,.343-6.748-1.006-8.123-.727-.744-1.807-1.121-3.21-1.121-1.207,0-2.412,.283-3.21,.519-4.336,1.286-9.778,6.817-12.636,10l-.135,.099c-1.859,.851-3.087,1.09-6.262,1.217l-1.289,.045,.562-.7Z"/><path class="cls-1" d="M92.081,11.755c-1.788-1.184-3.92-1.784-6.335-1.784-3.348,0-7.075,1.186-10.226,3.254-3.772,2.49-6.915,5.657-8.887,7.876l-.542,.61,5.288,.785c.165,.026,.319,.065,.473,.103l.244,.061,.177-.178c2.037-2.052,4.062-3.747,6.023-5.037,2.324-1.531,5.031-2.409,7.424-2.409,1.43,0,2.669,.319,3.582,.923,2.508,1.66,2.435,5.384,1.933,8.216-1.505,8.435-13.933,21.045-19.205,26.075l-.201,.192,.086,.264c.566,1.757,1.141,3.097,1.449,3.76l.48,1.016,.443-.409c7.408-6.856,20.108-19.871,21.912-30.006,1.478-8.275-1.948-11.894-4.118-13.312Z"/><path class="cls-1" d="M73.392,54.454c-.233-.501-.839-1.87-1.448-3.756l-.086-.264,.193-.161c5.275-5.032,17.708-17.648,19.214-26.091,.503-2.841,.574-6.578-1.947-8.247-.917-.607-2.162-.928-3.598-.928-2.399,0-5.111,.88-7.441,2.414-1.959,1.289-3.987,2.985-6.027,5.041l-.177,.178-.216-.069c-.157-.04-.311-.078-.476-.104l-5.289-.785,.56-.56c1.969-2.216,5.109-5.381,8.882-7.871,3.146-2.065,6.866-3.249,10.209-3.249,2.409,0,4.535,.599,6.318,1.779,2.166,1.416,5.58,5.024,4.105,13.282-1.802,10.125-14.496,23.135-21.903,29.989l-.412,.381-.462-.978Z"/><path class="cls-1" d="M70.774,57.957l-.598-1.221c-.055-.114-.546-1.156-1.118-2.758-.722-2.03-1.646-5.122-1.948-8.331-.618-6.731,1.009-11.174,1.522-12.377l2.221-5.234c.191-.456,.162-.964-.079-1.394-.243-.432-.661-.722-1.153-.796l-1.345-.194-4.841-.721c-9.302-1.427-18.137-3.343-26.26-5.693-1.508-.443-2.823-.844-3.973-1.218-1.939-.625-3.688-1.242-5.202-1.831-.094-.037-.157-.06-.165-.063l.019,.006-.309-.127-.276-.083c-1.248-.377-2.421-.56-3.585-.56-2.968,0-5.19,1.153-7.37,2.285-.674,.358-1.361,.716-2.162,1.088-1.62,.771-2.84,1.132-4.492,1.334-.783,.083-1.676,.137-2.734,.178l-1.349,.055-2.983,.14-1.184,4.169c-.308,1.135-1.815,7.325-1.306,17.766,.701,14.35,7.022,32.151,22.665,39.08,3.072,1.351,6.378,2.036,9.826,2.036,10.727,0,20.391-6.617,24.046-9.461,5.209-4.037,12.066-10.137,12.127-10.193l1.791-1.585c.956-.856,1.22-2.209,.66-3.364l-.446-.934Zm-18.075,10.991c-3.128,2.439-11.35,8.111-20.104,8.111-2.573,0-5.002-.501-7.219-1.489-9.859-4.373-14.538-13.819-16.741-21.203l31.439,1.228c1.009,.039,1.86-.747,1.9-1.756h0c.04-1.011-.747-1.863-1.757-1.902l-32.528-1.266c-.634-2.894-1.036-5.86-1.166-8.604-.018-.33-.029-.66-.041-1.033l2.292,.069,33.995,1.146c1.009,.034,1.855-.755,1.89-1.764h0c.036-1.011-.756-1.86-1.768-1.894l-35.515-1.189-.947-.038c.068-5.938,.846-9.649,1.097-10.699,3.781-.177,6.091-.548,9.391-2.109,.913-.433,1.695-.843,2.393-1.209,1.785-.934,2.964-1.552,4.371-1.552,.533,0,1.104,.094,1.705,.272,.102,.042,10.293,4.247,28.195,7.684l-.285,1.166c-.082,.347-.17,.72-.244,1.102-.778,3.621-1.626,9.186-1.259,15.138,.459,7.302,2.11,13.044,3.414,16.574,.142,.387,.287,.757,.424,1.109l.106,.272c.138,.359,.277,.689,.407,.996l.024,.059c-1.179,.968-2.372,1.928-3.471,2.781Zm9.674-8.037c-1.17,1.003-2.724,2.334-4.373,3.734-.045-.106-.323-.784-.323-.784l-.204-.556c-.098-.262-.198-.533-.295-.819-1.193-3.36-2.704-8.772-3.126-15.467-.349-5.666,.482-11.048,1.239-14.56l.302-1.35s.181-.729,.239-.946c2.211,.407,4.452,.783,6.67,1.123-.885,2.257-2.471,7.514-1.794,14.956,.483,5.046,2.14,9.663,3.088,11.972,.195,.458,.355,.809,.461,1.036-.336,.301-1.003,.893-1.883,1.662Z"/><path class="cls-1" d="M32.595,83.463c-3.444,0-6.746-.684-9.814-2.033C7.152,74.507,.835,56.716,.134,42.375c-.509-10.44,.997-16.623,1.305-17.756l1.184-4.169,4.304-.174c1.059-.041,1.952-.096,2.736-.178,1.66-.203,2.88-.565,4.502-1.337,.801-.373,1.488-.731,2.163-1.089,2.16-1.122,4.393-2.282,7.356-2.282,1.163,0,2.333,.183,3.576,.559l.276,.083,.453,.182c1.526,.594,3.277,1.21,5.204,1.832,1.15,.374,2.466,.776,3.974,1.218,8.122,2.35,16.959,4.266,26.264,5.694l4.841,.721,1.345,.194c.48,.072,.892,.357,1.131,.781,.237,.422,.265,.921,.078,1.368l-2.221,5.234c-.514,1.204-2.143,5.656-1.525,12.391,.302,3.209,1.227,6.306,1.949,8.339,.596,1.67,1.098,2.718,1.119,2.761l.598,1.221,.445,.933c.556,1.144,.293,2.482-.653,3.329l-1.791,1.585c-.065,.059-6.936,6.169-12.126,10.191-3.654,2.843-13.31,9.455-24.028,9.455ZM8.607,54.376c2.163,7.25,6.826,16.816,16.758,21.221,2.22,.99,4.653,1.492,7.231,1.492,8.765,0,16.992-5.676,20.122-8.117,1.1-.853,2.293-1.813,3.472-2.782-.161-.438-.292-.751-.422-1.089,0,0-.413-1.06-.53-1.38-1.304-3.53-2.954-9.27-3.412-16.565-.367-5.954,.482-11.514,1.258-15.13,.075-.382,.162-.755,.244-1.101l.285-1.165c-17.872-3.464-28.111-7.677-28.212-7.72-.616-.182-1.192-.274-1.716-.274-1.412,0-2.592,.617-4.376,1.551-.711,.373-1.491,.781-2.401,1.213-3.328,1.574-5.676,1.933-9.38,2.107-.268,1.028-1.057,4.769-1.125,10.728l.976,.068,35.515,1.189c.481,.016,.927,.219,1.256,.571,.328,.352,.5,.811,.483,1.292-.034,.974-.824,1.736-1.797,1.736l-34.057-1.148-2.292-.069c-.019,.405-.008,.735,.01,1.065,.13,2.741,.533,5.718,1.167,8.608l32.556,1.289c.481,.019,.925,.224,1.252,.577,.326,.353,.496,.812,.477,1.293-.038,.97-.828,1.729-1.797,1.729l-31.553-1.231,.012,.04ZM55.563,31.101l-.302,1.351c-.758,3.517-1.589,8.899-1.24,14.569,.423,6.701,1.935,12.114,3.128,15.476,.096,.286,.197,.557,.295,.819l.204,.556,.324,.785c1.696-1.389,3.25-2.719,4.42-3.722,.88-.769,1.547-1.361,1.883-1.662-.099-.262-.258-.613-.454-1.071-.945-2.304-2.603-6.922-3.085-11.963-.667-7.326,.837-12.507,1.792-14.942-2.259-.383-4.502-.76-6.692-1.163l-.027-.005-.246,.973Z"/></g></g></svg>