<?xml version="1.0" encoding="UTF-8"?><svg id="_イヤー_2" xmlns="http://www.w3.org/2000/svg" viewBox="0 0 88.916 111.631"><g id="_イヤー_1-2"><g><path d="M45.372,111.585l43.498-43.499c.006-.306,.046-.604,.046-.913,0-24.554-19.905-44.458-44.458-44.458S0,42.619,0,67.173s19.905,44.458,44.458,44.458c.308,0,.607-.04,.914-.046Z"/><g><path d="M12.7,9.933l.647,1.25c.38-1.384,1.286-2.41,2.716-3.076,1.607-.749,2.989-.643,4.144,.319,.125-.73,.415-1.409,.869-2.034,.454-.625,1.099-1.133,1.935-1.522,2.521-1.175,4.424-.437,5.711,2.213l3.589,7.701-1.965,.916-3.534-7.584c-.383-.822-.856-1.348-1.422-1.581-.565-.232-1.29-.143-2.175,.27-.729,.34-1.233,.84-1.512,1.5-.279,.66-.285,1.376-.02,2.149l3.554,7.626-1.976,.92-3.509-7.531c-.779-1.671-1.986-2.126-3.622-1.363-1.289,.601-1.915,1.56-1.877,2.879l3.91,8.391-1.965,.916-5.356-11.493,1.859-.866Z"/><path d="M40.775,14.566c-1.714,.129-3.151-.329-4.311-1.374-1.16-1.044-1.811-2.509-1.953-4.395l-.03-.397c-.095-1.254,.061-2.392,.465-3.414,.405-1.021,1.017-1.843,1.836-2.465,.819-.622,1.731-.971,2.736-1.046,1.644-.124,2.962,.322,3.955,1.335,.993,1.015,1.565,2.531,1.717,4.548l.068,.899-8.565,.645c.125,1.244,.565,2.224,1.32,2.938,.755,.715,1.67,1.032,2.745,.951,.764-.058,1.398-.262,1.905-.614,.506-.351,.939-.799,1.297-1.343l1.398,.929c-.937,1.708-2.465,2.642-4.584,2.802Zm-1.122-11.315c-.873,.065-1.581,.438-2.125,1.118-.544,.68-.843,1.597-.897,2.753l6.334-.477-.012-.164c-.146-1.094-.505-1.922-1.081-2.486s-1.315-.812-2.218-.744Z"/><path d="M56.134,4.742c-.316-.104-.663-.186-1.041-.244-1.405-.217-2.451,.234-3.138,1.353l-1.373,8.895-2.143-.331,1.935-12.531,2.085,.322-.189,1.453c.875-1.011,1.958-1.417,3.248-1.218,.417,.064,.725,.167,.924,.309l-.308,1.992Z"/><path d="M59.127,16.858l-2.061-.674,3.944-12.051,2.061,.674-3.944,12.051ZM61.89,.882c.109-.334,.304-.583,.583-.746,.279-.164,.62-.18,1.021-.048s.667,.346,.8,.644c.132,.298,.144,.614,.035,.949-.109,.334-.304,.578-.585,.733s-.622,.167-1.022,.035c-.401-.131-.667-.341-.798-.631-.132-.29-.143-.602-.033-.936Z"/><path d="M72.699,5.674l-1.409,2.728,2.103,1.086-.769,1.489-2.103-1.086-3.613,6.995c-.233,.452-.315,.839-.244,1.162s.332,.6,.783,.833c.222,.115,.549,.23,.98,.348l-.802,1.553c-.578-.124-1.106-.31-1.585-.557-.861-.445-1.375-1.04-1.543-1.787s-.005-1.599,.489-2.557l3.609-6.986-2.051-1.06,.77-1.489,2.051,1.06,1.409-2.728,1.926,.995Z"/></g></g></g></svg>