<?xml version="1.0" encoding="UTF-8"?><svg id="_イヤー_2" xmlns="http://www.w3.org/2000/svg" viewBox="0 0 314.091 55.838"><g id="_イヤー_1-2"><g><path d="M21.262,55.289L7.623,18.878V55.289H0V.55H5.718l13.341,33.845V.55h7.623V55.289h-5.42Z"/><path d="M69.945,37.694c0,2.444-.248,4.765-.744,6.964-.496,2.199-1.33,4.124-2.501,5.773-1.172,1.649-2.735,2.963-4.69,3.94-1.956,.977-4.393,1.466-7.311,1.466-1.985,0-3.742-.224-5.271-.672-1.529-.448-2.854-1.069-3.976-1.863-1.122-.794-2.07-1.751-2.844-2.871-.774-1.12-1.395-2.352-1.861-3.696-.466-1.344-.799-2.78-.998-4.307-.198-1.527-.298-3.105-.298-4.735V18.144c0-1.629,.099-3.207,.298-4.735,.198-1.527,.531-2.963,.998-4.307,.466-1.344,1.087-2.576,1.861-3.696,.774-1.12,1.722-2.077,2.844-2.871,1.122-.794,2.447-1.415,3.976-1.863,1.528-.448,3.285-.672,5.271-.672,2.918,0,5.355,.489,7.311,1.466,1.955,.978,3.518,2.291,4.69,3.94,1.171,1.65,2.005,3.574,2.501,5.773,.496,2.199,.744,4.521,.744,6.964v19.55Zm-22.87,1.955c0,1.466,.129,2.8,.387,4.002,.258,1.202,.685,2.23,1.28,3.085,.595,.855,1.38,1.517,2.352,1.986,.973,.469,2.174,.703,3.603,.703s2.63-.234,3.603-.703c.973-.468,1.757-1.13,2.352-1.986,.595-.855,1.022-1.883,1.28-3.085,.258-1.201,.387-2.535,.387-4.002V16.189c0-1.466-.129-2.8-.387-4.002-.258-1.201-.685-2.23-1.28-3.085-.595-.855-1.38-1.517-2.352-1.985-.973-.468-2.174-.703-3.603-.703s-2.631,.234-3.603,.703c-.973,.469-1.757,1.13-2.352,1.985-.595,.855-1.023,1.884-1.28,3.085-.258,1.202-.387,2.535-.387,4.002v23.459Z"/><path d="M106.984,.55l3.812,25.414,1.876,15.64,1.935-15.64L118.42,.55h7.623l-9.529,54.739h-7.623l-3.812-25.414-1.906-15.64-1.906,15.64-3.812,25.414h-7.623L80.302,.55h7.623l3.811,25.414,1.936,15.64,1.876-15.64L99.361,.55h7.623Z"/><path d="M183.922,37.694c0,2.444-.248,4.765-.744,6.964-.497,2.199-1.33,4.124-2.502,5.773-1.171,1.649-2.734,2.963-4.69,3.94-1.955,.977-4.393,1.466-7.311,1.466-1.986,0-3.742-.224-5.271-.672-1.529-.448-2.854-1.069-3.975-1.863-1.122-.794-2.07-1.751-2.845-2.871-.774-1.12-1.395-2.352-1.861-3.696-.466-1.344-.799-2.78-.997-4.307-.199-1.527-.298-3.105-.298-4.735V18.144c0-1.629,.099-3.207,.298-4.735,.198-1.527,.53-2.963,.997-4.307,.466-1.344,1.087-2.576,1.861-3.696,.775-1.12,1.722-2.077,2.845-2.871,1.121-.794,2.446-1.415,3.975-1.863,1.529-.448,3.285-.672,5.271-.672,2.918,0,5.355,.489,7.311,1.466,1.955,.978,3.519,2.291,4.69,3.94,1.172,1.65,2.005,3.574,2.502,5.773,.496,2.199,.744,4.521,.744,6.964v19.55Zm-22.871,1.955c0,1.466,.129,2.8,.387,4.002,.258,1.202,.685,2.23,1.28,3.085,.596,.855,1.38,1.517,2.352,1.986,.972,.469,2.174,.703,3.603,.703s2.63-.234,3.603-.703c.972-.468,1.757-1.13,2.352-1.986,.595-.855,1.022-1.883,1.28-3.085,.257-1.201,.387-2.535,.387-4.002V16.189c0-1.466-.129-2.8-.387-4.002-.259-1.201-.685-2.23-1.28-3.085-.596-.855-1.38-1.517-2.352-1.985-.973-.468-2.174-.703-3.603-.703s-2.631,.234-3.603,.703c-.973,.469-1.757,1.13-2.352,1.985-.596,.855-1.022,1.884-1.28,3.085-.258,1.202-.387,2.535-.387,4.002v23.459Z"/><path d="M210.031,.55c2.382,0,4.417,.357,6.104,1.069,1.687,.713,3.067,1.741,4.139,3.085s1.856,2.984,2.352,4.918c.496,1.935,.744,4.124,.744,6.567s-.338,4.531-1.013,6.262c-.675,1.731-1.608,3.146-2.799,4.246-1.191,1.1-2.601,1.904-4.228,2.413-1.629,.509-3.395,.764-5.301,.764h-5.718v25.414h-7.623V.55h13.341Zm-3.812,23.459c1.906,0,3.474-.132,4.705-.397,1.231-.264,2.204-.703,2.919-1.313,.714-.611,1.21-1.415,1.489-2.413,.277-.997,.416-2.23,.416-3.696s-.05-2.8-.149-4.002c-.099-1.201-.447-2.23-1.042-3.085-.595-.855-1.538-1.517-2.829-1.985-1.291-.468-3.127-.703-5.509-.703h-1.906V24.009h1.906Z"/><path d="M252.342,29.874h-9.53v19.55h13.341v5.865h-20.964V.55h20.964V6.415h-13.341V24.009h9.53v5.865Z"/><path d="M289.231,55.289l-13.639-36.411V55.289h-7.623V.55h5.717l13.341,33.845V.55h7.624V55.289h-5.42Z"/><path d="M306.468,.55h7.623V43.559h-5.717l-1.906-43.009Zm0,46.919h7.623v7.82h-7.623v-7.82Z"/></g></g></svg>