<?xml version="1.0" encoding="UTF-8"?><svg id="_イヤー_2" xmlns="http://www.w3.org/2000/svg" viewBox="0 0 32.444 32.444"><defs><style>.cls-1{fill:#fff;}</style></defs><g id="_イヤー_1-2"><g><polygon class="cls-1" points="24.333 29.74 2.704 29.74 2.704 2.704 13.518 2.704 13.518 0 0 0 0 32.444 27.037 32.444 27.037 22.749 24.333 25.453 24.333 29.74"/><polygon class="cls-1" points="16.222 5.407 21.07 10.255 22.981 8.343 14.638 0 13.518 0 16.222 2.704 16.222 5.407"/><polygon class="cls-1" points="16.222 10.815 16.222 5.407 16.222 2.704 13.518 0 13.518 2.704 13.518 13.518 17.806 13.518 20.51 10.815 16.222 10.815"/><polygon class="cls-1" points="13.518 27.037 21.629 24.333 16.222 18.926 13.518 27.037"/><polygon class="cls-1" points="18.926 21.629 17.22 19.892 28.019 9.093 27.037 8.111 16.222 18.926 21.629 24.333 32.444 13.518 29.74 10.815 18.926 21.629"/></g></g></svg>