<?xml version="1.0" encoding="UTF-8"?><svg id="_レイヤー_2" xmlns="http://www.w3.org/2000/svg" viewBox="0 0 154.891 89.344"><defs><style>.cls-1{fill:#959294;}</style></defs><g id="_レイヤー_1-2"><g><path class="cls-1" d="M40.522,51.703c.422,1.332,.464,2.496,.123,3.491-.49,1.737-2.017,3.552-4.58,5.445-5.29,3.876-11.524,7.513-18.701,10.908-1.327,4.818-2.259,9.356-2.798,13.617,2.513-.952,4.526-2.516,6.034-4.691,.487-.656,.869-1.028,1.15-1.117,.105-.033,.169-.015,.191,.055,.067,.211-.31,.966-1.132,2.269-1.25,2.017-2.248,3.433-2.992,4.247-1.431,1.688-3.007,2.806-4.724,3.35-.491,.156-.797,.04-.919-.345-.145-.456-.102-1.839,.13-4.149,.255-2.358,.56-4.498,.914-6.424l1.147-5.687c-.796,.407-1.792,.8-2.983,1.177-6.905,2.19-10.668,2.305-11.29,.341-.278-.876,.074-1.47,1.055-1.782,.245-.078,.523,.008,.834,.256l.603,.445c2.081,.844,5.311,.572,9.693-.818,.526-.167,1.274-.481,2.247-.944,1.388-5.84,2.912-11.068,4.573-15.684l-.779-.447c-1.583,1.699-3.046,3.474-4.386,5.326-1.151,1.6-1.833,2.432-2.043,2.499-.246,.078-.423-.058-.534-.409-.067-.21,.705-1.728,2.317-4.554,3.732-6.353,6.264-9.74,7.596-10.163,.946-.3,1.57,.023,1.869,.969,.056,.176,.103,.932,.142,2.27,.665-.211,1.004-.299,1.015-.264,.023,.071-.286,.92-.926,2.551-.977,2.392-2.158,5.602-3.542,9.629-1.01,3.021-1.436,4.776-1.28,5.267,.177,.561,.599,.735,1.265,.524,1.226-.389,3.183-1.337,5.868-2.845,3.154-1.848,6.137-3.817,8.947-5.905,1.211-.924,1.969-1.819,2.272-2.688,.221-.764,.136-1.759-.252-2.987-1.068-3.364-3.596-5.803-7.586-7.315-3.965-1.557-8.069-1.664-12.31-.319-4.942,1.567-9.552,4.669-13.829,9.304l-.79-.849c4.787-6.07,10.299-10.094,16.538-12.073,4.766-1.512,9.306-1.427,13.619,.251,4.256,1.621,7,4.376,8.235,8.266Z"/><path class="cls-1" d="M59.836,50.206l-.207,.991c-1.002,.125-2.865-.152-5.587-.832-.848,3.896-1.363,9.266-1.544,16.113l-2.471,2.057c.277-5.449-.04-9.611-.952-12.485-.256-.806-.665-1.428-1.229-1.867-.598-.426-1.126-.568-1.581-.424,.034-.011-.67,.869-2.114,2.638l-.346-.18c.73-1.466,1.373-2.787,1.925-3.966,1.138-2.25,1.829-3.415,2.074-3.493,.842-.267,1.56,.297,2.156,1.689,.045,.14,.572,1.805,1.585,4.995,1.268-4.877,2.42-8.117,3.456-9.718l.8,.151c.028,.454,.12,.927,.276,1.417,.422,1.332,1.676,2.304,3.76,2.915Z"/><path class="cls-1" d="M76.987,54.66c-2.674,3.857-5.149,6.146-7.427,6.869-1.297,.411-2.527,.243-3.691-.507-1.118-.724-1.909-1.824-2.376-3.296-.923-2.909-.395-6.355,1.581-10.338,1.786-3.613,3.625-5.721,5.518-6.321,.665-.211,1.121,.069,1.365,.84,1.157,3.646-.721,8.427-5.634,14.343,1.371,1.648,3.143,2.127,5.316,1.438,1.507-.478,3.18-1.587,5.02-3.328l.327,.301Zm-7.145-8.843c-.267-.842-.856-1.117-1.767-.828-.876,.278-1.624,1.325-2.244,3.142-.859,2.279-.848,4.802,.03,7.57,1.927-2.193,3.181-4.384,3.759-6.573,.392-1.435,.468-2.539,.223-3.311Z"/><path class="cls-1" d="M93.917,48.018c.067,.211-.156,1.149-.669,2.816-.318,1.066-.636,2.131-.953,3.196-.301,.636-1.385,1.596-3.252,2.883-1.833,1.275-3.258,2.074-4.274,2.397-1.963,.623-3.741,.55-5.334-.217l.835-4.663c.223-.997,.773-1.634,1.65-1.912,1.472-.467,2.303-.402,2.492,.194,.101,.315-.15,1.533-.751,3.652,1.034,.097,1.742,.084,2.128-.039,1.296-.411,3.557-2.285,6.78-5.622-3.069-.068-5.152-.313-6.251-.737-1.782-.63-2.995-1.962-3.639-3.995-.7-2.208-.597-4.555,.312-7.042,.823-2.267,1.831-3.59,3.023-3.968,.526-.167,1.089-.152,1.691,.043,.543,.252,.881,.588,1.014,1.009,.245,.771-.113,2.139-1.072,4.101-.828-.663-1.933-1.353-3.318-2.071-.227,1.962-.179,3.452,.144,4.468,.8,2.524,2.924,3.991,6.372,4.402,1.869,.179,2.894,.548,3.071,1.108Z"/><path class="cls-1" d="M109.267,44.422c-2.673,3.857-5.148,6.146-7.426,6.868-1.297,.412-2.527,.243-3.691-.507-1.118-.725-1.909-1.824-2.376-3.296-.923-2.909-.396-6.355,1.581-10.338,1.785-3.613,3.625-5.721,5.517-6.321,.665-.211,1.122,.069,1.366,.84,1.156,3.646-.722,8.426-5.634,14.343,1.371,1.648,3.143,2.128,5.316,1.438,1.507-.478,3.18-1.587,5.02-3.328l.327,.301Zm-7.144-8.844c-.267-.841-.857-1.117-1.767-.828-.877,.278-1.624,1.325-2.244,3.142-.86,2.279-.849,4.802,.029,7.57,1.927-2.193,3.181-4.384,3.759-6.574,.393-1.435,.468-2.539,.223-3.311Z"/><path class="cls-1" d="M131.945,37.113c-2.695,3.787-4.673,5.88-5.935,6.28-.526,.167-1.078-.661-1.656-2.483-.222-.701-.288-1.336-.198-1.904l.772-8.693c.04-.36,.038-.61-.006-.75-.111-.35-.377-.459-.798-.325-.982,.311-2.291,1.961-3.928,4.949-2.005,3.529-3.291,7.197-3.858,11.002l-3.5,3.193-.917-.519c1.412-5.154,1.644-9.47,.695-12.95-.7-.626-1.88-1.487-3.538-2.581l3.517-3.141c1.458,1.197,2.411,2.495,2.856,3.897,.323,1.017,.577,3.096,.763,6.239,1.087-1.926,2.606-4.491,4.561-7.696,1.807-2.694,3.955-4.919,6.447-6.674l.898,.641-1.086,12.264c-.043,.476-.007,.89,.104,1.24,.211,.666,.597,.91,1.158,.732,.806-.255,1.908-1.28,3.307-3.074l.343,.354Z"/><path class="cls-1" d="M142.314,19.822l-1.126,.646c-1.947,1.158-3.879,2.426-5.794,3.805-.043,4.489,.314,7.923,1.07,10.307,.634,1.998,1.477,2.83,2.528,2.497,.806-.256,2.1-1.708,3.883-4.356,.344-.494,.831-1.151,1.459-1.967l.59,.217c-4.244,6.322-6.944,9.667-8.1,10.034-.387,.123-.721-.08-1.004-.607-.238-.387-.564-1.229-.974-2.526-1.089-3.435-1.643-7.733-1.661-12.897-.591-.16-1.371-.491-2.34-.993,.653-.863,1.479-1.723,2.479-2.58,.209-4.695,1.588-7.948,4.138-9.76l.017,.053c-.651,1.479-1.114,2.996-1.392,4.55-.182,1.254-.194,2.125-.038,2.616,.311,.982,1.343,1.194,3.096,.638,.105-.033,.947-.358,2.526-.975l.644,1.3Z"/><path class="cls-1" d="M154.079,31.192c.267,.841,.191,1.637-.227,2.386-.372,.774-.979,1.294-1.819,1.561-.771,.245-1.549,.164-2.334-.244-.738-.382-1.241-.995-1.508-1.836-.245-.771-.176-1.525,.207-2.265,.393-.704,.977-1.177,1.748-1.422,.875-.278,1.678-.243,2.405,.105,.773,.372,1.284,.944,1.528,1.714Zm.799-30.863c.067,.21-.132,1.528-.598,3.951-.343,1.961-.721,4.723-1.133,8.286l-1.071,8.846-1.949,2.065c.993-8.3,1.184-14.936,.57-19.912,2.172-2.271,3.399-3.451,3.68-3.54,.244-.078,.412,.024,.501,.304Z"/></g></g></svg>