<?xml version="1.0" encoding="UTF-8"?><svg id="_イヤー_2" xmlns="http://www.w3.org/2000/svg" viewBox="0 0 37.696 32.311"><defs><style>.cls-1{fill:#fff;}</style></defs><g id="_イヤー_1-2"><g><path class="cls-1" d="M2.693,21.54v8.078c0,1.488,1.204,2.693,2.693,2.693H13.463v-10.77H2.693Z"/><path class="cls-1" d="M24.233,32.311h8.078c1.488,0,2.693-1.204,2.693-2.693v-8.078h-10.77v10.77Z"/><path class="cls-1" d="M2.693,10.77c-1.488,0-2.693,1.204-2.693,2.693v2.693c0,1.488,1.204,2.693,2.693,2.693H13.463V10.77H2.693Z"/><path class="cls-1" d="M35.003,10.77h-10.77v8.078h10.77c1.488,0,2.693-1.204,2.693-2.693v-2.693c0-1.488-1.204-2.693-2.693-2.693Z"/><polygon class="cls-1" points="16.155 10.77 16.155 13.463 16.155 18.848 16.155 21.54 16.155 32.311 21.54 32.311 21.54 21.54 21.54 18.848 21.54 13.463 21.54 10.77 16.155 10.77"/><ellipse class="cls-1" cx="18.848" cy="5.385" rx="3.592" ry="2.693"/><path class="cls-1" d="M34.151,5.522l-1.841-5.522-8.23,3.292c.347,.634,.557,1.336,.557,2.093,0,1.004-.347,1.925-.939,2.693h8.611c1.488,0,2.311-1.144,1.841-2.556Z"/><path class="cls-1" d="M13.615,3.292L5.385,0l-1.841,5.522c-.471,1.412,.352,2.556,1.841,2.556H13.996c-.592-.768-.939-1.688-.939-2.693,0-.757,.21-1.459,.557-2.093Z"/></g></g></svg>