<?xml version="1.0" encoding="UTF-8"?><svg id="_イヤー_2" xmlns="http://www.w3.org/2000/svg" viewBox="0 0 113.795 86.757"><defs><style>.cls-1{fill:#bababa;}</style></defs><g id="_イヤー_1-2"><g><path class="cls-1" d="M72.846,11.23c-.357,0-.719-.093-1.049-.289-.975-.58-1.295-1.841-.715-2.816l2.754-4.628c.37-.622,1.041-1.004,1.766-1.004h15.996C91.71,1.104,92.876,0,94.293,0h10.298c1.49,0,2.71,1.22,2.71,2.71v6.504h-4.715v6.865h2.005c1.49,0,2.71,1.219,2.71,2.71v6.504h-15.718v-6.504c0-1.491,1.22-2.71,2.71-2.71h2.005v-6.865h-4.715v-2.607l.002-.005h-14.815l-2.156,3.624c-.384,.646-1.067,1.004-1.768,1.004Z"/><path class="cls-1" d="M86.299,35.211c-.526,.782-.807,1.704-.807,2.646v37.274c0,3.055,2.477,5.531,5.531,5.531h17.241c3.055,0,5.531-2.477,5.531-5.531V37.857c0-.943-.281-1.864-.807-2.646l-4.509-6.702h-17.672l-4.509,6.702Zm5.396,13.562h15.898v9.656h-15.898v-9.656Z"/><path class="cls-1" d="M71.643,14.436c.056,.086,.106,.178,.145,.275,.041,.095,.07,.195,.091,.297,.022,.103,.031,.208,.031,.313,0,.103-.009,.208-.031,.311-.02,.102-.05,.202-.091,.297-.039,.097-.089,.189-.145,.275-.059,.088-.125,.169-.199,.242-.074,.073-.155,.141-.242,.199-.086,.058-.18,.106-.275,.147-.097,.039-.197,.07-.299,.091-.102,.02-.206,.031-.311,.031-.103,0-.208-.011-.311-.031-.102-.02-.202-.052-.297-.091-.097-.041-.189-.089-.275-.147-.087-.058-.169-.125-.242-.199-.073-.074-.141-.155-.199-.242-.058-.086-.106-.178-.147-.275-.039-.095-.07-.195-.091-.297-.02-.103-.031-.208-.031-.311s.011-.209,.031-.313c.02-.102,.052-.202,.091-.297,.041-.097,.089-.189,.147-.275,.058-.087,.125-.169,.199-.242,.295-.297,.707-.467,1.126-.467s.83,.17,1.127,.467c.073,.074,.141,.155,.199,.242Z"/><path class="cls-1" d="M67.449,19.744c.738,.48,.947,1.466,.469,2.204-.305,.47-.816,.727-1.338,.727-.297,0-.597-.084-.864-.258-.738-.478-.949-1.465-.471-2.203,.48-.738,1.466-.949,2.204-.471Z"/><path class="cls-1" d="M61.979,28.177c-.739-.478-.949-1.465-.47-2.203,.48-.739,1.466-.949,2.204-.47,.738,.48,.949,1.466,.469,2.204-.305,.47-.816,.725-1.338,.725-.297,0-.597-.083-.865-.256Z"/><path class="cls-1" d="M60.58,33.211c-.039,.095-.089,.189-.147,.275-.058,.088-.123,.169-.197,.242-.074,.074-.155,.139-.242,.197-.086,.058-.18,.108-.275,.147-.097,.041-.197,.07-.299,.091-.102,.02-.206,.031-.311,.031-.103,0-.208-.011-.311-.031-.102-.02-.202-.05-.299-.091-.095-.039-.188-.089-.274-.147-.087-.058-.169-.123-.242-.197-.074-.073-.141-.155-.199-.242-.058-.086-.106-.18-.147-.275-.039-.097-.07-.197-.091-.299-.02-.102-.031-.206-.031-.311s.011-.208,.031-.311c.02-.102,.052-.202,.091-.299,.041-.095,.089-.188,.147-.275,.058-.086,.125-.169,.199-.242,.073-.072,.155-.139,.242-.197,.086-.058,.178-.106,.274-.147,.097-.039,.197-.07,.299-.091,.206-.041,.417-.041,.622,0,.102,.02,.202,.052,.299,.091,.095,.041,.189,.089,.275,.147,.088,.058,.169,.125,.242,.197,.073,.074,.139,.156,.197,.242,.058,.088,.108,.18,.147,.275,.041,.097,.07,.197,.091,.299,.022,.103,.031,.208,.031,.311,0,.105-.009,.209-.031,.311-.02,.102-.05,.202-.091,.299Z"/><path class="cls-1" d="M64.027,16.287c-.103,0-.208-.009-.311-.031-.102-.02-.202-.05-.299-.091-.095-.039-.188-.089-.275-.145-.086-.058-.167-.125-.241-.199-.073-.074-.141-.155-.199-.242-.058-.086-.106-.178-.147-.275-.039-.095-.07-.195-.091-.297-.02-.103-.031-.208-.031-.313,0-.103,.011-.208,.031-.311,.02-.102,.052-.202,.091-.297,.041-.097,.089-.189,.147-.275,.058-.087,.125-.169,.199-.242,.073-.074,.155-.141,.241-.199,.088-.058,.18-.106,.275-.147,.097-.039,.197-.07,.299-.091,.205-.041,.417-.041,.622,0,.102,.02,.202,.052,.299,.091,.095,.041,.189,.089,.275,.147,.088,.058,.169,.125,.242,.199,.074,.073,.139,.155,.197,.242,.058,.086,.108,.178,.147,.275,.041,.095,.07,.195,.091,.297,.022,.103,.031,.208,.031,.311,0,.105-.009,.209-.031,.313-.02,.102-.05,.202-.091,.297-.039,.097-.089,.189-.147,.275-.058,.088-.123,.169-.197,.242s-.155,.141-.242,.199c-.086,.056-.18,.106-.275,.145-.097,.041-.197,.07-.299,.091-.102,.022-.206,.031-.311,.031Z"/><path class="cls-1" d="M58.333,20.738c-.281,.202-.607,.299-.927,.299-.497,0-.985-.231-1.296-.664-.513-.716-.349-1.71,.366-2.223,.714-.513,1.71-.349,2.223,.366,.513,.714,.349,1.71-.366,2.223Z"/><path class="cls-1" d="M52.254,24.801c-.041,.097-.089,.189-.147,.275-.058,.088-.125,.169-.199,.242-.297,.297-.706,.466-1.127,.466-.103,0-.208-.009-.311-.03-.102-.022-.202-.052-.297-.092-.097-.039-.189-.089-.275-.145-.087-.059-.169-.125-.242-.199-.073-.074-.141-.155-.198-.242-.056-.086-.106-.178-.145-.275-.041-.095-.07-.195-.091-.297-.022-.103-.031-.208-.031-.313,0-.103,.009-.208,.031-.311,.02-.102,.05-.202,.091-.297,.039-.097,.089-.189,.145-.275,.058-.087,.125-.169,.198-.242,.074-.074,.155-.141,.242-.199,.086-.058,.178-.106,.275-.147,.095-.039,.195-.07,.297-.091,.206-.041,.417-.041,.624,0,.102,.02,.202,.052,.297,.091,.097,.041,.189,.089,.275,.147,.087,.058,.169,.125,.242,.199,.073,.074,.141,.155,.199,.242,.058,.086,.106,.178,.147,.275,.039,.095,.069,.195,.091,.297,.02,.103,.03,.208,.03,.311,0,.105-.009,.209-.03,.313-.022,.102-.052,.202-.091,.297Z"/><path class="cls-1" d="M73.256,21.995c-.102-.02-.203-.05-.299-.091-.095-.039-.189-.089-.275-.145-.088-.059-.169-.125-.242-.199s-.139-.155-.197-.242c-.058-.086-.108-.178-.147-.275-.041-.095-.07-.197-.091-.299-.022-.102-.031-.206-.031-.311,0-.103,.009-.208,.031-.311,.02-.102,.05-.202,.091-.299,.039-.095,.089-.188,.145-.274,.059-.088,.125-.169,.199-.242s.155-.141,.242-.199c.086-.058,.178-.106,.275-.147,.095-.039,.197-.07,.299-.091,.205-.041,.416-.041,.622,0,.102,.02,.202,.052,.299,.091,.095,.041,.188,.089,.275,.147,.086,.058,.167,.125,.241,.199s.141,.155,.199,.242c.058,.086,.106,.178,.147,.274,.039,.097,.07,.197,.091,.299,.02,.103,.031,.208,.031,.311,0,.105-.011,.209-.031,.311-.02,.102-.052,.203-.091,.299-.041,.097-.089,.189-.147,.275-.058,.088-.125,.169-.199,.242s-.155,.139-.241,.199c-.088,.056-.18,.106-.275,.145-.097,.041-.197,.07-.299,.091-.103,.022-.208,.031-.311,.031-.105,0-.21-.009-.311-.031Z"/><path class="cls-1" d="M71.53,27.424c-.844-.245-1.33-1.13-1.083-1.974,.245-.846,1.13-1.33,1.974-1.085,.844,.247,1.33,1.132,1.083,1.976-.202,.696-.838,1.147-1.527,1.147-.148,0-.299-.02-.447-.064Z"/><path class="cls-1" d="M69.939,32.886c-.844-.247-1.329-1.13-1.083-1.976,.245-.844,1.13-1.33,1.974-1.083,.846,.245,1.33,1.13,1.085,1.974-.203,.697-.839,1.149-1.529,1.149-.149,0-.299-.022-.447-.064Z"/><path class="cls-1" d="M67.323,36.207c.039-.097,.089-.189,.145-.275,.058-.088,.125-.169,.199-.242s.155-.139,.242-.199c.086-.056,.178-.106,.275-.145,.095-.041,.197-.07,.297-.092,.206-.041,.417-.041,.624,0,.102,.022,.202,.052,.297,.092,.097,.039,.189,.089,.275,.145,.088,.059,.169,.125,.242,.199,.073,.073,.141,.155,.199,.242,.058,.086,.106,.178,.147,.275,.039,.095,.07,.197,.091,.299,.02,.102,.031,.206,.031,.311,0,.103-.011,.208-.031,.311-.02,.102-.052,.202-.091,.297-.041,.097-.089,.189-.147,.275-.058,.088-.125,.169-.199,.242-.074,.073-.155,.141-.242,.199-.086,.058-.178,.106-.275,.147-.095,.039-.195,.07-.297,.091-.103,.02-.208,.031-.311,.031-.105,0-.209-.011-.313-.031-.1-.02-.202-.052-.297-.091-.097-.041-.189-.089-.275-.147-.087-.058-.169-.125-.242-.199-.073-.073-.141-.155-.199-.242-.056-.086-.106-.178-.145-.275-.041-.095-.072-.195-.092-.297-.02-.103-.031-.208-.031-.311,0-.105,.011-.21,.031-.311,.02-.102,.052-.203,.092-.299Z"/><path class="cls-1" d="M5.556,45.234L21.773,27.471c1.006-1.176,2.445-1.85,3.949-1.85,1.126,0,2.166,.373,3.007,1.08,1.004,.843,1.59,2.052,1.651,3.406,.057,1.276-.366,2.535-1.192,3.546l-2.724,3.837,16.321-5.797c.592-.215,1.206-.324,1.827-.324,2.084,0,3.939,1.25,4.615,3.111,.209,.574,.3,1.186,.269,1.799,.096-.005,.193-.008,.289-.008,.686,0,1.351,.132,1.98,.394,1.251,.521,2.187,1.486,2.635,2.717,.448,1.232,.351,2.572-.273,3.775-.341,.656-.82,1.228-1.404,1.684-.956,.008-1.9,.178-2.808,.506l-8.332,2.96c.097-.575,.133-1.159,.107-1.743-.014-.301-.044-.598-.089-.889l8.532-3.103c.477-.174,.862-.503,1.082-.927,.196-.378,.232-.783,.102-1.141-.13-.358-.418-.645-.811-.809-.226-.094-.468-.142-.719-.142-.237,0-.474,.042-.705,.126l-8.533,3.104c-.43-.701-.973-1.335-1.622-1.88-.304-.255-.628-.484-.965-.688l7-2.546c.943-.343,1.473-1.271,1.184-2.068-.21-.577-.808-.95-1.523-.95-.243,0-.485,.043-.724,.13l-21.227,7.54c-.177,.063-.362,.094-.549,.094-.511,0-1.001-.243-1.309-.651-.434-.574-.446-1.354-.029-1.94l5.767-8.122c.025-.036,.052-.071,.081-.105,.327-.389,.495-.866,.473-1.344-.019-.425-.19-.794-.482-1.039-.245-.206-.557-.315-.901-.315-.535,0-1.081,.268-1.459,.715-.014,.017-.028,.033-.042,.048L7.708,47.745c-.178,.195-.403,.346-.651,.436l-5.996,2.181-1.061-3.107,5.556-2.021Z"/><path class="cls-1" d="M29.957,44.068c1.006-1.176,2.445-1.85,3.949-1.85,1.126,0,2.166,.374,3.007,1.08,1.004,.843,1.59,2.052,1.651,3.406,.057,1.276-.366,2.535-1.192,3.546l-2.724,3.837,16.321-5.797c.592-.215,1.206-.324,1.827-.324,2.084,0,3.939,1.25,4.615,3.111,.209,.574,.3,1.186,.269,1.799,.096-.005,.193-.008,.289-.008,.686,0,1.351,.133,1.98,.394,1.251,.521,2.187,1.486,2.635,2.717,.448,1.232,.351,2.572-.273,3.775-.358,.689-.868,1.287-1.492,1.754,.419,.45,.744,.979,.955,1.558,.442,1.214,.354,2.537-.247,3.727-.596,1.18-1.626,2.085-2.899,2.548l-.697,.254c.338,.407,.606,.869,.786,1.367,.448,1.232,.351,2.572-.273,3.775-.6,1.156-1.62,2.044-2.873,2.5l-19.083,6.941c-.154,.056-.315,.089-.479,.097l-14.898,.748-4.768,1.734-1.061-3.107,4.939-1.796c.154-.056,.315-.089,.479-.097l14.898-.748,18.851-6.857c.477-.174,.862-.503,1.082-.927,.196-.378,.232-.783,.102-1.141-.13-.358-.418-.645-.811-.809-.226-.094-.468-.142-.719-.142-.237,0-.474,.042-.705,.126l-13.777,5.011c-.181,.066-.37,.1-.562,.1-.645,0-1.232-.381-1.495-.969-.015-.034-.03-.067-.043-.101l-.007-.017-.003-.009c-.15-.412-.13-.858,.055-1.255,.185-.397,.514-.699,.926-.848l19.014-6.916c.943-.343,1.474-1.271,1.184-2.068-.13-.358-.418-.645-.811-.809-.226-.094-.468-.142-.72-.142-.237,0-.474,.043-.705,.126l-15.981,5.813c-.18,.066-.368,.099-.559,.099-.067,0-.134-.004-.2-.012-.617-.075-1.133-.484-1.346-1.071l-.007-.019c-.15-.412-.13-.858,.055-1.255,.185-.397,.514-.699,.926-.849l18.975-6.902c.478-.174,.862-.503,1.082-.927,.196-.378,.232-.783,.102-1.141-.13-.358-.418-.645-.811-.809-.226-.094-.468-.142-.719-.142-.237,0-.474,.042-.705,.126l-18.974,6.902c-.181,.066-.37,.1-.562,.1-.688,0-1.307-.434-1.537-1.067l-.011-.031c-.039-.109-.067-.223-.083-.339-.102-.759,.346-1.499,1.065-1.761l15.982-5.813c.943-.343,1.473-1.271,1.184-2.068-.21-.577-.808-.95-1.523-.95-.243,0-.485,.044-.724,.13l-21.227,7.54c-.177,.063-.362,.094-.549,.094-.511,0-1.001-.243-1.309-.651-.434-.574-.446-1.354-.029-1.94l5.767-8.122c.025-.036,.052-.071,.081-.105,.327-.389,.495-.866,.473-1.344-.019-.425-.19-.794-.482-1.039-.245-.206-.557-.315-.901-.315-.535,0-1.081,.268-1.459,.715-.014,.017-.028,.033-.042,.048l-16.509,18.083c-.178,.195-.403,.346-.651,.436l-6.03,2.193-1.061-3.107,5.59-2.033,16.218-17.764Z"/></g></g></svg>