<?xml version="1.0" encoding="UTF-8"?><svg id="_イヤー_2" xmlns="http://www.w3.org/2000/svg" viewBox="0 0 98.3 110.177"><defs><style>.cls-1{fill:#bababa;}</style></defs><g id="_イヤー_1-2"><g><path class="cls-1" d="M97.414,34.385c-11.096-2.041-18.994-4.328-24.083-9.416-5.089-5.089-7.375-12.987-9.416-24.083-.094-.513-.542-.886-1.064-.886s-.968,.372-1.062,.886c-2.041,11.096-4.328,18.994-9.416,24.083-5.089,5.089-12.988,7.375-24.083,9.416-.513,.094-.885,.542-.885,1.063s.372,.969,.885,1.063c11.096,2.04,18.995,4.327,24.083,9.416,5.088,5.089,7.376,12.988,9.416,24.084,.094,.513,.541,.885,1.062,.885s.97-.372,1.064-.885c2.041-11.096,4.327-18.995,9.416-24.084,5.088-5.088,12.987-7.375,24.083-9.416,.514-.094,.886-.542,.886-1.063s-.372-.969-.886-1.063Z"/><path class="cls-1" d="M54.124,81.95c-8.578-1.578-14.684-3.346-18.619-7.28-3.934-3.934-5.702-10.04-7.28-18.618-.073-.396-.419-.685-.822-.685s-.749,.288-.822,.685c-1.578,8.578-3.345,14.684-7.28,18.618-3.934,3.934-10.04,5.702-18.618,7.28-.396,.072-.684,.419-.684,.822s.288,.749,.684,.822c8.578,1.577,14.684,3.345,18.618,7.279,3.934,3.934,5.702,10.04,7.28,18.618,.073,.397,.419,.685,.822,.685s.749-.288,.822-.685c1.578-8.578,3.346-14.684,7.28-18.618,3.934-3.934,10.041-5.702,18.619-7.279,.396-.073,.684-.419,.684-.822s-.288-.749-.684-.822Z"/></g></g></svg>