<?xml version="1.0" encoding="UTF-8"?><svg id="_イヤー_2" xmlns="http://www.w3.org/2000/svg" viewBox="0 0 124.475 88.263"><defs><style>.cls-1{letter-spacing:-.01em;}.cls-2,.cls-3{fill:#bababa;}.cls-3{font-family:Roboto-Bold, Roboto;font-size:21.452px;}</style></defs><g id="_イヤー_1-2"><g><g><circle class="cls-2" cx="62.237" cy="7.553" r="7.553" transform="translate(45.293 67.914) rotate(-81.239)"/><circle class="cls-2" cx="101.264" cy="20.858" r="7.553" transform="translate(64.285 117.409) rotate(-80.682)"/><circle class="cls-2" cx="23.211" cy="20.858" r="7.553" transform="translate(-3.071 4.033) rotate(-9.318)"/><circle class="cls-2" cx="112.87" cy="50.945" r="7.553"/><circle class="cls-2" cx="11.605" cy="50.945" r="7.553"/><path class="cls-2" d="M73.843,29.055v-3.993c0-4.309-3.493-7.803-7.803-7.803h-7.605c-4.309,0-7.803,3.493-7.803,7.803v3.993h23.211Z"/><path class="cls-2" d="M21.08,63.098c-1.423-1.506-3.437-2.448-5.672-2.448H7.803c-4.309,0-7.803,3.493-7.803,7.803v13.835H14.427l6.653-19.191Z"/><path class="cls-2" d="M116.672,60.651h-7.605c-2.235,0-4.25,.941-5.672,2.448l6.653,19.191h14.427v-13.835c0-4.309-3.493-7.803-7.803-7.803Z"/><path class="cls-2" d="M88.961,32.754H35.514l-19.244,55.509H108.205l-19.244-55.509Zm-39.097,16.491l2.388-10.42h19.971l2.388,10.42h-24.747Z"/><path class="cls-2" d="M101.691,52.202c-.046-.413-.073-.832-.073-1.258,0-6.204,5.047-11.251,11.251-11.251h0v-1.326c0-4.309-3.493-7.803-7.803-7.803h-7.605c-1.801,0-3.458,.612-4.778,1.636l6.934,20.002h2.073Z"/><path class="cls-2" d="M11.605,39.693c6.204,0,11.251,5.047,11.251,11.251,0,.425-.026,.844-.073,1.258h2.073l6.934-20.002c-1.32-1.025-2.977-1.636-4.778-1.636h-7.605c-4.309,0-7.803,3.493-7.803,7.803v1.326h0Z"/></g><text class="cls-3" transform="translate(34.433 79.919)"><tspan class="cls-1" x="0" y="0">Z</tspan><tspan x="12.779" y="0">oom</tspan></text></g></g></svg>