<?xml version="1.0" encoding="UTF-8"?><svg id="_イヤー_2" xmlns="http://www.w3.org/2000/svg" viewBox="0 0 93.491 93.49"><defs><style>.cls-1{fill:#bababa;}</style></defs><g id="_イヤー_1-2"><g><rect class="cls-1" x="57.103" y="20.657" width="24.294" height="7.169" rx="2.258" ry="2.258" transform="translate(3.141 56.066) rotate(-44.999)"/><path class="cls-1" d="M90.909,2.581c-3.628-3.628-9.839-3.391-14.014,.455-.049,.039-47.258,47.242-47.258,47.242-.136,.136-.249,.295-.332,.47l-3.079,10.179L1.31,85.843c-1.747,1.747-1.747,4.59,0,6.337,1.747,1.747,4.59,1.747,6.337,0l24.916-24.916,10.18-3.079c.174-.083,.333-.195,.469-.332,0,0,47.131-47.137,47.242-47.258,3.846-4.175,4.083-10.386,.454-14.014Zm-1.995,1.995c2.224,2.224,2.323,5.875,.461,8.812-.35,.552-.769,1.08-1.257,1.568L41.355,61.72l-10.443,3.204-15.615,15.615-2.346-2.346,15.615-15.615,3.204-10.442L78.534,5.373c.487-.488,1.015-.907,1.567-1.257,2.938-1.862,6.588-1.763,8.813,.461Z"/></g></g></svg>