<?xml version="1.0" encoding="UTF-8"?><svg id="_イヤー_2" xmlns="http://www.w3.org/2000/svg" viewBox="0 0 105.012 83.646"><defs><style>.cls-1{fill:#bababa;}</style></defs><g id="_イヤー_1-2"><path class="cls-1" d="M102.434,47.797c1.294-.624,2.191-1.945,2.191-3.475v-4.996c0-1.53-.897-2.851-2.191-3.476L105.006,1.867c.076-1.003-.6-1.867-1.46-1.867h-16.956c-.861,0-1.536,.864-1.46,1.867l.14,1.848H19.743l.14-1.848c.076-1.003-.6-1.867-1.46-1.867H1.466C.605,0-.07,.864,.006,1.867L2.578,35.849c-1.294,.624-2.191,1.945-2.191,3.476v4.996c0,1.53,.897,2.851,2.191,3.476L.006,81.779c-.076,1.003,.6,1.867,1.46,1.867H18.422c.861,0,1.536-.864,1.46-1.867l-.14-1.848H85.269l-.14,1.848c-.076,1.003,.6,1.867,1.46,1.867h16.956c.861,0,1.536-.864,1.46-1.867l-2.572-33.982Zm-1.67-8.472v4.996h-11.393v-4.996h11.393Zm-85.123,0v4.996H4.247v-4.996H15.641Zm34.935-1.509h-3.044c-.687,0-1.243,.557-1.243,1.243v5.528c0,.687,.557,1.243,1.243,1.243h3.044v26.165H19.142l-1.832-24.199c1.294-.624,2.191-1.945,2.191-3.476v-4.996c0-1.53-.897-2.851-2.191-3.476l1.832-24.199h31.434v26.165Zm35.294,34.18h-31.434V11.651h31.434l1.832,24.199c-1.294,.624-2.191,1.945-2.191,3.476v4.996c0,1.53,.897,2.851,2.191,3.475l-1.832,24.199Z"/></g></svg>